<svg xmlns="http://www.w3.org/2000/svg" xmlns:xlink="http://www.w3.org/1999/xlink" width="40" zoomAndPan="magnify" viewBox="0 0 30 30.000001" height="40" preserveAspectRatio="xMidYMid meet" version="1.0"><defs><clipPath id="b8096166c9"><path d="M 8 15 L 19 15 L 19 23.859375 L 8 23.859375 Z M 8 15 " clip-rule="nonzero"/></clipPath><clipPath id="bdf5d2efdb"><path d="M 4.839844 8 L 11 8 L 11 23.859375 L 4.839844 23.859375 Z M 4.839844 8 " clip-rule="nonzero"/></clipPath><clipPath id="a7aa8dcfd6"><path d="M 21 14 L 25.160156 14 L 25.160156 23 L 21 23 Z M 21 14 " clip-rule="nonzero"/></clipPath><clipPath id="681e54ac0b"><path d="M 8 15 L 19 15 L 19 23.859375 L 8 23.859375 Z M 8 15 " clip-rule="nonzero"/></clipPath><clipPath id="7d59c43b38"><path d="M 4.839844 8 L 11 8 L 11 23.859375 L 4.839844 23.859375 Z M 4.839844 8 " clip-rule="nonzero"/></clipPath><clipPath id="1c1f835508"><path d="M 21 14 L 25.160156 14 L 25.160156 23 L 21 23 Z M 21 14 " clip-rule="nonzero"/></clipPath></defs><g clip-path="url(#b8096166c9)"><path fill="#ffffff" d="M 15.046875 23.996094 C 14.625 23.992188 14.261719 23.847656 13.953125 23.5625 C 13.816406 23.433594 13.65625 23.371094 13.46875 23.371094 C 13.28125 23.371094 13.117188 23.433594 12.980469 23.5625 C 12.671875 23.847656 12.308594 23.992188 11.886719 23.996094 C 10.054688 23.996094 8.726562 21.871094 8.726562 18.941406 C 8.726562 17.199219 9.859375 15.78125 11.253906 15.78125 C 12.027344 15.773438 12.675781 16.050781 13.203125 16.617188 C 13.277344 16.6875 13.363281 16.722656 13.46875 16.722656 C 13.570312 16.722656 13.660156 16.6875 13.730469 16.617188 C 14.257812 16.050781 14.90625 15.773438 15.679688 15.78125 C 17.074219 15.78125 18.207031 17.199219 18.207031 18.941406 C 18.207031 21.871094 16.878906 23.996094 15.046875 23.996094 Z M 13.46875 22.734375 C 13.816406 22.738281 14.117188 22.855469 14.375 23.089844 C 14.5625 23.269531 14.789062 23.359375 15.046875 23.367188 C 16.488281 23.367188 17.574219 21.464844 17.574219 18.941406 C 17.574219 17.546875 16.726562 16.414062 15.679688 16.414062 C 15.09375 16.40625 14.601562 16.613281 14.199219 17.039062 C 14.105469 17.144531 13.996094 17.222656 13.867188 17.277344 C 13.738281 17.332031 13.605469 17.359375 13.46875 17.359375 C 13.328125 17.359375 13.195312 17.332031 13.066406 17.277344 C 12.941406 17.222656 12.828125 17.144531 12.734375 17.039062 C 12.332031 16.613281 11.839844 16.40625 11.253906 16.414062 C 10.207031 16.414062 9.359375 17.546875 9.359375 18.941406 C 9.359375 21.464844 10.445312 23.367188 11.886719 23.367188 C 12.148438 23.359375 12.371094 23.269531 12.558594 23.089844 C 12.816406 22.855469 13.121094 22.738281 13.46875 22.734375 Z M 13.46875 22.734375 " fill-opacity="1" fill-rule="nonzero"/></g><path fill="#ffffff" d="M 13.46875 17.042969 C 13.378906 17.042969 13.304688 17.015625 13.242188 16.953125 C 13.183594 16.890625 13.152344 16.816406 13.152344 16.730469 C 13.152344 15.160156 14.144531 13.882812 15.363281 13.882812 C 15.449219 13.882812 15.523438 13.914062 15.585938 13.976562 C 15.648438 14.039062 15.679688 14.113281 15.679688 14.199219 C 15.679688 14.289062 15.648438 14.363281 15.585938 14.421875 C 15.523438 14.484375 15.449219 14.515625 15.363281 14.515625 C 14.492188 14.515625 13.78125 15.507812 13.78125 16.730469 C 13.78125 16.816406 13.753906 16.890625 13.691406 16.953125 C 13.628906 17.015625 13.554688 17.042969 13.46875 17.042969 Z M 13.46875 17.042969 " fill-opacity="1" fill-rule="nonzero"/><path fill="#ffffff" d="M 9.992188 9.144531 L 7.460938 9.144531 C 7.375 9.144531 7.300781 9.113281 7.238281 9.050781 C 7.175781 8.988281 7.144531 8.914062 7.144531 8.828125 L 7.144531 7.878906 C 7.144531 7.617188 7.238281 7.394531 7.421875 7.207031 C 7.609375 7.023438 7.832031 6.929688 8.09375 6.929688 L 9.359375 6.929688 C 9.621094 6.929688 9.84375 7.023438 10.027344 7.207031 C 10.214844 7.394531 10.304688 7.617188 10.304688 7.878906 L 10.304688 8.828125 C 10.304688 8.914062 10.277344 8.988281 10.214844 9.050781 C 10.152344 9.113281 10.078125 9.144531 9.992188 9.144531 Z M 7.777344 8.511719 L 9.675781 8.511719 L 9.675781 7.878906 C 9.675781 7.792969 9.644531 7.71875 9.582031 7.65625 C 9.519531 7.59375 9.445312 7.5625 9.359375 7.5625 L 8.09375 7.5625 C 8.007812 7.5625 7.933594 7.59375 7.871094 7.65625 C 7.808594 7.71875 7.777344 7.792969 7.777344 7.878906 Z M 7.777344 8.511719 " fill-opacity="1" fill-rule="nonzero"/><g clip-path="url(#bdf5d2efdb)"><path fill="#ffffff" d="M 10.304688 23.367188 L 6.515625 23.367188 C 6.253906 23.367188 6.027344 23.273438 5.84375 23.089844 C 5.660156 22.902344 5.566406 22.679688 5.566406 22.417969 L 5.566406 17.507812 C 5.570312 17.394531 5.527344 17.308594 5.433594 17.25 C 5.304688 17.179688 5.199219 17.085938 5.113281 16.96875 C 5.027344 16.851562 4.972656 16.71875 4.949219 16.578125 C 4.921875 16.433594 4.929688 16.292969 4.96875 16.152344 C 5.011719 16.011719 5.078125 15.886719 5.175781 15.78125 C 5.015625 15.601562 4.933594 15.390625 4.933594 15.148438 C 4.933594 14.90625 5.015625 14.695312 5.175781 14.515625 C 5.078125 14.40625 5.011719 14.285156 4.96875 14.144531 C 4.929688 14.003906 4.921875 13.863281 4.949219 13.71875 C 4.972656 13.578125 5.027344 13.445312 5.113281 13.328125 C 5.199219 13.210938 5.304688 13.117188 5.433594 13.046875 C 5.527344 12.988281 5.570312 12.902344 5.566406 12.789062 L 5.566406 11.671875 C 5.566406 10.800781 6.132812 10.089844 6.828125 10.089844 C 7.171875 10.089844 7.460938 9.65625 7.460938 9.144531 L 7.460938 8.828125 L 8.09375 8.828125 L 8.09375 9.144531 C 8.09375 10.015625 7.527344 10.722656 6.828125 10.722656 C 6.488281 10.722656 6.199219 11.15625 6.199219 11.671875 L 6.199219 12.789062 C 6.207031 13.15625 6.050781 13.425781 5.730469 13.605469 C 5.585938 13.683594 5.535156 13.800781 5.574219 13.960938 C 5.613281 14.121094 5.71875 14.199219 5.882812 14.199219 C 5.96875 14.199219 6.042969 14.230469 6.105469 14.292969 C 6.167969 14.355469 6.199219 14.429688 6.199219 14.515625 C 6.199219 14.601562 6.167969 14.679688 6.105469 14.738281 C 6.042969 14.800781 5.96875 14.832031 5.882812 14.832031 C 5.792969 14.832031 5.71875 14.863281 5.660156 14.925781 C 5.597656 14.988281 5.566406 15.0625 5.566406 15.148438 C 5.566406 15.234375 5.597656 15.308594 5.660156 15.371094 C 5.71875 15.433594 5.792969 15.464844 5.882812 15.464844 C 5.96875 15.464844 6.042969 15.496094 6.105469 15.558594 C 6.167969 15.617188 6.199219 15.691406 6.199219 15.78125 C 6.199219 15.867188 6.167969 15.941406 6.105469 16.003906 C 6.042969 16.066406 5.96875 16.097656 5.882812 16.097656 C 5.71875 16.097656 5.613281 16.175781 5.574219 16.335938 C 5.535156 16.496094 5.585938 16.613281 5.734375 16.691406 C 6.050781 16.871094 6.207031 17.140625 6.199219 17.507812 L 6.199219 22.417969 C 6.199219 22.503906 6.230469 22.578125 6.289062 22.640625 C 6.351562 22.703125 6.425781 22.734375 6.515625 22.734375 L 10.304688 22.734375 Z M 10.304688 23.367188 " fill-opacity="1" fill-rule="nonzero"/></g><path fill="#ffffff" d="M 11.570312 16.097656 C 11.484375 16.097656 11.410156 16.066406 11.347656 16.003906 C 11.285156 15.941406 11.253906 15.867188 11.253906 15.78125 C 11.253906 15.691406 11.285156 15.617188 11.347656 15.558594 C 11.410156 15.496094 11.484375 15.464844 11.570312 15.464844 C 11.65625 15.464844 11.734375 15.433594 11.792969 15.371094 C 11.855469 15.308594 11.886719 15.234375 11.886719 15.148438 C 11.886719 15.0625 11.855469 14.988281 11.792969 14.925781 C 11.734375 14.863281 11.65625 14.832031 11.570312 14.832031 C 11.484375 14.832031 11.410156 14.800781 11.347656 14.738281 C 11.285156 14.679688 11.253906 14.601562 11.253906 14.515625 C 11.253906 14.429688 11.285156 14.355469 11.347656 14.292969 C 11.410156 14.230469 11.484375 14.199219 11.570312 14.199219 C 11.734375 14.199219 11.835938 14.121094 11.878906 13.960938 C 11.917969 13.800781 11.863281 13.683594 11.71875 13.605469 C 11.402344 13.425781 11.246094 13.15625 11.253906 12.789062 L 11.253906 11.671875 C 11.253906 11.15625 10.964844 10.722656 10.621094 10.722656 C 9.925781 10.722656 9.359375 10.015625 9.359375 9.144531 L 9.359375 8.828125 C 9.359375 8.738281 9.390625 8.664062 9.449219 8.605469 C 9.511719 8.542969 9.585938 8.511719 9.675781 8.511719 C 9.761719 8.511719 9.835938 8.542969 9.898438 8.605469 C 9.960938 8.664062 9.992188 8.738281 9.992188 8.828125 L 9.992188 9.144531 C 9.992188 9.65625 10.28125 10.089844 10.621094 10.089844 C 11.320312 10.089844 11.886719 10.800781 11.886719 11.671875 L 11.886719 12.789062 C 11.882812 12.902344 11.925781 12.988281 12.019531 13.046875 C 12.148438 13.117188 12.253906 13.210938 12.339844 13.328125 C 12.425781 13.445312 12.480469 13.578125 12.503906 13.71875 C 12.53125 13.863281 12.523438 14.003906 12.480469 14.144531 C 12.441406 14.285156 12.375 14.40625 12.277344 14.515625 C 12.402344 14.65625 12.476562 14.816406 12.507812 15.003906 C 12.535156 15.1875 12.511719 15.363281 12.4375 15.535156 C 12.359375 15.707031 12.242188 15.84375 12.085938 15.945312 C 11.929688 16.046875 11.757812 16.097656 11.570312 16.097656 Z M 11.570312 16.097656 " fill-opacity="1" fill-rule="nonzero"/><path fill="#ffffff" d="M 5.882812 14.199219 L 11.570312 14.199219 L 11.570312 14.832031 L 5.882812 14.832031 Z M 5.882812 14.199219 " fill-opacity="1" fill-rule="nonzero"/><path fill="#ffffff" d="M 5.882812 15.464844 L 11.570312 15.464844 L 11.570312 16.097656 L 5.882812 16.097656 Z M 5.882812 15.464844 " fill-opacity="1" fill-rule="nonzero"/><path fill="#ffffff" d="M 10.621094 13.566406 L 6.828125 13.566406 C 6.742188 13.566406 6.667969 13.535156 6.605469 13.476562 C 6.542969 13.414062 6.515625 13.339844 6.515625 13.25 C 6.515625 13.164062 6.542969 13.089844 6.605469 13.027344 C 6.667969 12.964844 6.742188 12.9375 6.828125 12.9375 L 10.621094 12.9375 C 10.710938 12.9375 10.785156 12.964844 10.847656 13.027344 C 10.90625 13.089844 10.9375 13.164062 10.9375 13.25 C 10.9375 13.339844 10.90625 13.414062 10.847656 13.476562 C 10.785156 13.535156 10.710938 13.566406 10.621094 13.566406 Z M 10.621094 13.566406 " fill-opacity="1" fill-rule="nonzero"/><path fill="#ffffff" d="M 9.359375 17.359375 L 6.828125 17.359375 C 6.742188 17.359375 6.667969 17.328125 6.605469 17.269531 C 6.542969 17.207031 6.515625 17.132812 6.515625 17.042969 C 6.515625 16.957031 6.542969 16.882812 6.605469 16.820312 C 6.667969 16.757812 6.742188 16.730469 6.828125 16.730469 L 9.359375 16.730469 C 9.445312 16.730469 9.519531 16.757812 9.582031 16.820312 C 9.644531 16.882812 9.675781 16.957031 9.675781 17.042969 C 9.675781 17.132812 9.644531 17.207031 9.582031 17.269531 C 9.519531 17.328125 9.445312 17.359375 9.359375 17.359375 Z M 9.359375 17.359375 " fill-opacity="1" fill-rule="nonzero"/><path fill="#ffffff" d="M 18.839844 22.734375 L 16.945312 22.734375 L 16.945312 22.101562 L 18.523438 22.101562 L 18.523438 10.722656 L 11.253906 10.722656 L 11.253906 10.089844 L 18.839844 10.089844 C 18.925781 10.089844 19 10.121094 19.0625 10.183594 C 19.125 10.246094 19.15625 10.320312 19.15625 10.40625 L 19.15625 22.417969 C 19.15625 22.503906 19.125 22.578125 19.0625 22.640625 C 19 22.703125 18.925781 22.734375 18.839844 22.734375 Z M 18.839844 22.734375 " fill-opacity="1" fill-rule="nonzero"/><path fill="#ffffff" d="M 21.367188 22.734375 L 18.839844 22.734375 C 18.753906 22.734375 18.679688 22.703125 18.617188 22.640625 C 18.554688 22.578125 18.523438 22.503906 18.523438 22.417969 C 18.523438 22.332031 18.554688 22.253906 18.617188 22.195312 C 18.679688 22.132812 18.753906 22.101562 18.839844 22.101562 L 21.050781 22.101562 L 21.050781 10.480469 L 20.105469 8.585938 L 19.125 10.546875 C 19.085938 10.625 19.023438 10.679688 18.941406 10.707031 C 18.859375 10.734375 18.777344 10.730469 18.699219 10.691406 C 18.621094 10.652344 18.570312 10.589844 18.542969 10.507812 C 18.515625 10.425781 18.519531 10.34375 18.558594 10.265625 L 19.824219 7.738281 C 19.851562 7.6875 19.894531 7.648438 19.941406 7.621094 C 19.992188 7.589844 20.046875 7.578125 20.105469 7.578125 C 20.164062 7.578125 20.21875 7.589844 20.269531 7.621094 C 20.320312 7.648438 20.359375 7.6875 20.390625 7.738281 L 21.652344 10.265625 C 21.675781 10.3125 21.683594 10.359375 21.683594 10.40625 L 21.683594 22.417969 C 21.683594 22.503906 21.652344 22.578125 21.59375 22.640625 C 21.53125 22.703125 21.457031 22.734375 21.367188 22.734375 Z M 21.367188 22.734375 " fill-opacity="1" fill-rule="nonzero"/><path fill="#ffffff" d="M 11.253906 10.722656 C 11.199219 10.722656 11.148438 10.710938 11.101562 10.683594 C 11.054688 10.65625 11.015625 10.621094 10.984375 10.574219 C 10.957031 10.527344 10.941406 10.476562 10.9375 10.421875 C 10.9375 10.367188 10.949219 10.316406 10.972656 10.265625 L 12.238281 7.738281 C 12.277344 7.660156 12.335938 7.605469 12.417969 7.578125 C 12.5 7.550781 12.582031 7.558594 12.660156 7.597656 C 12.738281 7.636719 12.792969 7.695312 12.820312 7.777344 C 12.847656 7.863281 12.839844 7.941406 12.800781 8.019531 L 11.539062 10.546875 C 11.480469 10.664062 11.386719 10.722656 11.253906 10.722656 Z M 11.253906 10.722656 " fill-opacity="1" fill-rule="nonzero"/><path fill="#ffffff" d="M 20.105469 8.195312 L 12.519531 8.195312 C 12.433594 8.195312 12.355469 8.164062 12.296875 8.101562 C 12.234375 8.039062 12.203125 7.964844 12.203125 7.878906 L 12.203125 5.984375 C 12.203125 5.722656 12.296875 5.496094 12.480469 5.3125 C 12.664062 5.125 12.890625 5.035156 13.152344 5.035156 L 19.472656 5.035156 C 19.734375 5.035156 19.957031 5.125 20.144531 5.3125 C 20.328125 5.496094 20.421875 5.722656 20.421875 5.984375 L 20.421875 7.878906 C 20.421875 7.964844 20.390625 8.039062 20.328125 8.101562 C 20.265625 8.164062 20.191406 8.195312 20.105469 8.195312 Z M 12.835938 7.5625 L 19.789062 7.5625 L 19.789062 5.984375 C 19.789062 5.894531 19.757812 5.820312 19.695312 5.757812 C 19.632812 5.699219 19.558594 5.667969 19.472656 5.667969 L 13.152344 5.667969 C 13.0625 5.667969 12.988281 5.699219 12.925781 5.757812 C 12.867188 5.820312 12.835938 5.894531 12.835938 5.984375 Z M 12.835938 7.5625 " fill-opacity="1" fill-rule="nonzero"/><g clip-path="url(#a7aa8dcfd6)"><path fill="#ffffff" d="M 24.214844 22.101562 L 21.367188 22.101562 C 21.28125 22.101562 21.207031 22.070312 21.144531 22.007812 C 21.082031 21.945312 21.050781 21.871094 21.050781 21.785156 C 21.050781 21.699219 21.082031 21.625 21.144531 21.5625 C 21.207031 21.5 21.28125 21.46875 21.367188 21.46875 L 24.214844 21.46875 C 24.300781 21.46875 24.375 21.4375 24.4375 21.375 C 24.5 21.316406 24.527344 21.242188 24.527344 21.152344 L 24.527344 17.675781 C 24.527344 17.414062 24.429688 17.1875 24.242188 17.003906 C 24.050781 16.816406 23.824219 16.726562 23.5625 16.730469 C 23.394531 16.726562 23.238281 16.691406 23.085938 16.625 C 22.933594 16.558594 22.796875 16.46875 22.683594 16.351562 C 22.566406 16.230469 22.476562 16.097656 22.414062 15.941406 C 22.347656 15.789062 22.316406 15.628906 22.316406 15.464844 L 22.316406 14.832031 C 22.316406 14.746094 22.347656 14.671875 22.410156 14.609375 C 22.472656 14.546875 22.546875 14.515625 22.632812 14.515625 C 22.71875 14.515625 22.792969 14.546875 22.855469 14.609375 C 22.917969 14.671875 22.949219 14.746094 22.949219 14.832031 L 22.949219 15.464844 C 22.949219 15.636719 23.011719 15.785156 23.132812 15.90625 C 23.253906 16.03125 23.398438 16.09375 23.570312 16.097656 C 23.78125 16.097656 23.984375 16.136719 24.179688 16.214844 C 24.371094 16.296875 24.542969 16.410156 24.695312 16.558594 C 24.84375 16.707031 24.957031 16.875 25.039062 17.070312 C 25.121094 17.265625 25.160156 17.464844 25.160156 17.675781 L 25.160156 21.152344 C 25.160156 21.414062 25.070312 21.640625 24.882812 21.824219 C 24.699219 22.007812 24.476562 22.101562 24.214844 22.101562 Z M 24.214844 22.101562 " fill-opacity="1" fill-rule="nonzero"/></g><path fill="#ffffff" d="M 23.265625 15.148438 L 21.367188 15.148438 C 21.28125 15.148438 21.207031 15.117188 21.144531 15.054688 C 21.082031 14.992188 21.050781 14.917969 21.050781 14.832031 L 21.050781 13.566406 C 21.050781 13.480469 21.082031 13.40625 21.144531 13.34375 C 21.207031 13.28125 21.28125 13.25 21.367188 13.25 L 22.632812 13.25 C 22.894531 13.25 23.117188 13.34375 23.304688 13.53125 C 23.488281 13.714844 23.582031 13.9375 23.582031 14.199219 L 23.582031 14.832031 C 23.582031 14.917969 23.550781 14.992188 23.488281 15.054688 C 23.425781 15.117188 23.351562 15.148438 23.265625 15.148438 Z M 21.683594 14.515625 L 22.949219 14.515625 L 22.949219 14.199219 C 22.949219 14.113281 22.917969 14.039062 22.855469 13.976562 C 22.792969 13.914062 22.71875 13.882812 22.632812 13.882812 L 21.683594 13.882812 Z M 21.683594 14.515625 " fill-opacity="1" fill-rule="nonzero"/><path fill="#ffffff" d="M 23.265625 20.835938 L 21.367188 20.835938 C 21.28125 20.835938 21.207031 20.804688 21.144531 20.746094 C 21.082031 20.683594 21.050781 20.609375 21.050781 20.519531 C 21.050781 20.433594 21.082031 20.359375 21.144531 20.296875 C 21.207031 20.234375 21.28125 20.207031 21.367188 20.207031 L 22.949219 20.207031 L 22.949219 17.992188 L 21.367188 17.992188 C 21.28125 17.992188 21.207031 17.960938 21.144531 17.898438 C 21.082031 17.839844 21.050781 17.765625 21.050781 17.675781 C 21.050781 17.589844 21.082031 17.515625 21.144531 17.453125 C 21.207031 17.390625 21.28125 17.359375 21.367188 17.359375 L 23.265625 17.359375 C 23.351562 17.359375 23.425781 17.390625 23.488281 17.453125 C 23.550781 17.515625 23.582031 17.589844 23.582031 17.675781 L 23.582031 20.519531 C 23.582031 20.609375 23.550781 20.683594 23.488281 20.746094 C 23.425781 20.804688 23.351562 20.835938 23.265625 20.835938 Z M 23.265625 20.835938 " fill-opacity="1" fill-rule="nonzero"/><path fill="#ffffff" d="M 17.574219 17.042969 L 16.945312 17.042969 L 16.945312 12.304688 L 12.519531 12.304688 L 12.519531 16.414062 L 11.886719 16.414062 L 11.886719 11.988281 C 11.886719 11.898438 11.917969 11.824219 11.980469 11.765625 C 12.042969 11.703125 12.117188 11.671875 12.203125 11.671875 L 17.261719 11.671875 C 17.347656 11.671875 17.421875 11.703125 17.484375 11.765625 C 17.546875 11.824219 17.574219 11.898438 17.574219 11.988281 Z M 17.574219 17.042969 " fill-opacity="1" fill-rule="nonzero"/><g clip-path="url(#681e54ac0b)"><path fill="#ffffff" d="M 15.046875 23.996094 C 14.625 23.992188 14.261719 23.847656 13.953125 23.5625 C 13.816406 23.433594 13.65625 23.371094 13.46875 23.371094 C 13.28125 23.371094 13.117188 23.433594 12.980469 23.5625 C 12.671875 23.847656 12.308594 23.992188 11.886719 23.996094 C 10.054688 23.996094 8.726562 21.871094 8.726562 18.941406 C 8.726562 17.199219 9.859375 15.78125 11.253906 15.78125 C 12.027344 15.773438 12.675781 16.050781 13.203125 16.617188 C 13.277344 16.6875 13.363281 16.722656 13.46875 16.722656 C 13.570312 16.722656 13.660156 16.6875 13.730469 16.617188 C 14.257812 16.050781 14.90625 15.773438 15.679688 15.78125 C 17.074219 15.78125 18.207031 17.199219 18.207031 18.941406 C 18.207031 21.871094 16.878906 23.996094 15.046875 23.996094 Z M 13.46875 22.734375 C 13.816406 22.738281 14.117188 22.855469 14.375 23.089844 C 14.5625 23.269531 14.789062 23.359375 15.046875 23.367188 C 16.488281 23.367188 17.574219 21.464844 17.574219 18.941406 C 17.574219 17.546875 16.726562 16.414062 15.679688 16.414062 C 15.09375 16.40625 14.601562 16.613281 14.199219 17.039062 C 14.105469 17.144531 13.996094 17.222656 13.867188 17.277344 C 13.738281 17.332031 13.605469 17.359375 13.46875 17.359375 C 13.328125 17.359375 13.195312 17.332031 13.066406 17.277344 C 12.941406 17.222656 12.828125 17.144531 12.734375 17.039062 C 12.332031 16.613281 11.839844 16.40625 11.253906 16.414062 C 10.207031 16.414062 9.359375 17.546875 9.359375 18.941406 C 9.359375 21.464844 10.445312 23.367188 11.886719 23.367188 C 12.148438 23.359375 12.371094 23.269531 12.558594 23.089844 C 12.816406 22.855469 13.121094 22.738281 13.46875 22.734375 Z M 13.46875 22.734375 " fill-opacity="1" fill-rule="nonzero"/></g><path fill="#ffffff" d="M 13.46875 17.042969 C 13.378906 17.042969 13.304688 17.015625 13.242188 16.953125 C 13.183594 16.890625 13.152344 16.816406 13.152344 16.730469 C 13.152344 15.160156 14.144531 13.882812 15.363281 13.882812 C 15.449219 13.882812 15.523438 13.914062 15.585938 13.976562 C 15.648438 14.039062 15.679688 14.113281 15.679688 14.199219 C 15.679688 14.289062 15.648438 14.363281 15.585938 14.421875 C 15.523438 14.484375 15.449219 14.515625 15.363281 14.515625 C 14.492188 14.515625 13.78125 15.507812 13.78125 16.730469 C 13.78125 16.816406 13.753906 16.890625 13.691406 16.953125 C 13.628906 17.015625 13.554688 17.042969 13.46875 17.042969 Z M 13.46875 17.042969 " fill-opacity="1" fill-rule="nonzero"/><path fill="#ffffff" d="M 9.992188 9.144531 L 7.460938 9.144531 C 7.375 9.144531 7.300781 9.113281 7.238281 9.050781 C 7.175781 8.988281 7.144531 8.914062 7.144531 8.828125 L 7.144531 7.878906 C 7.144531 7.617188 7.238281 7.394531 7.421875 7.207031 C 7.609375 7.023438 7.832031 6.929688 8.09375 6.929688 L 9.359375 6.929688 C 9.621094 6.929688 9.84375 7.023438 10.027344 7.207031 C 10.214844 7.394531 10.304688 7.617188 10.304688 7.878906 L 10.304688 8.828125 C 10.304688 8.914062 10.277344 8.988281 10.214844 9.050781 C 10.152344 9.113281 10.078125 9.144531 9.992188 9.144531 Z M 7.777344 8.511719 L 9.675781 8.511719 L 9.675781 7.878906 C 9.675781 7.792969 9.644531 7.71875 9.582031 7.65625 C 9.519531 7.59375 9.445312 7.5625 9.359375 7.5625 L 8.09375 7.5625 C 8.007812 7.5625 7.933594 7.59375 7.871094 7.65625 C 7.808594 7.71875 7.777344 7.792969 7.777344 7.878906 Z M 7.777344 8.511719 " fill-opacity="1" fill-rule="nonzero"/><g clip-path="url(#7d59c43b38)"><path fill="#ffffff" d="M 10.304688 23.367188 L 6.515625 23.367188 C 6.253906 23.367188 6.027344 23.273438 5.84375 23.089844 C 5.660156 22.902344 5.566406 22.679688 5.566406 22.417969 L 5.566406 17.507812 C 5.570312 17.394531 5.527344 17.308594 5.433594 17.25 C 5.304688 17.179688 5.199219 17.085938 5.113281 16.96875 C 5.027344 16.851562 4.972656 16.71875 4.949219 16.578125 C 4.921875 16.433594 4.929688 16.292969 4.96875 16.152344 C 5.011719 16.011719 5.078125 15.886719 5.175781 15.78125 C 5.015625 15.601562 4.933594 15.390625 4.933594 15.148438 C 4.933594 14.90625 5.015625 14.695312 5.175781 14.515625 C 5.078125 14.40625 5.011719 14.285156 4.96875 14.144531 C 4.929688 14.003906 4.921875 13.863281 4.949219 13.71875 C 4.972656 13.578125 5.027344 13.445312 5.113281 13.328125 C 5.199219 13.210938 5.304688 13.117188 5.433594 13.046875 C 5.527344 12.988281 5.570312 12.902344 5.566406 12.789062 L 5.566406 11.671875 C 5.566406 10.800781 6.132812 10.089844 6.828125 10.089844 C 7.171875 10.089844 7.460938 9.65625 7.460938 9.144531 L 7.460938 8.828125 L 8.09375 8.828125 L 8.09375 9.144531 C 8.09375 10.015625 7.527344 10.722656 6.828125 10.722656 C 6.488281 10.722656 6.199219 11.15625 6.199219 11.671875 L 6.199219 12.789062 C 6.207031 13.15625 6.050781 13.425781 5.730469 13.605469 C 5.585938 13.683594 5.535156 13.800781 5.574219 13.960938 C 5.613281 14.121094 5.71875 14.199219 5.882812 14.199219 C 5.96875 14.199219 6.042969 14.230469 6.105469 14.292969 C 6.167969 14.355469 6.199219 14.429688 6.199219 14.515625 C 6.199219 14.601562 6.167969 14.679688 6.105469 14.738281 C 6.042969 14.800781 5.96875 14.832031 5.882812 14.832031 C 5.792969 14.832031 5.71875 14.863281 5.660156 14.925781 C 5.597656 14.988281 5.566406 15.0625 5.566406 15.148438 C 5.566406 15.234375 5.597656 15.308594 5.660156 15.371094 C 5.71875 15.433594 5.792969 15.464844 5.882812 15.464844 C 5.96875 15.464844 6.042969 15.496094 6.105469 15.558594 C 6.167969 15.617188 6.199219 15.691406 6.199219 15.78125 C 6.199219 15.867188 6.167969 15.941406 6.105469 16.003906 C 6.042969 16.066406 5.96875 16.097656 5.882812 16.097656 C 5.71875 16.097656 5.613281 16.175781 5.574219 16.335938 C 5.535156 16.496094 5.585938 16.613281 5.734375 16.691406 C 6.050781 16.871094 6.207031 17.140625 6.199219 17.507812 L 6.199219 22.417969 C 6.199219 22.503906 6.230469 22.578125 6.289062 22.640625 C 6.351562 22.703125 6.425781 22.734375 6.515625 22.734375 L 10.304688 22.734375 Z M 10.304688 23.367188 " fill-opacity="1" fill-rule="nonzero"/></g><path fill="#ffffff" d="M 11.570312 16.097656 C 11.484375 16.097656 11.410156 16.066406 11.347656 16.003906 C 11.285156 15.941406 11.253906 15.867188 11.253906 15.78125 C 11.253906 15.691406 11.285156 15.617188 11.347656 15.558594 C 11.410156 15.496094 11.484375 15.464844 11.570312 15.464844 C 11.65625 15.464844 11.734375 15.433594 11.792969 15.371094 C 11.855469 15.308594 11.886719 15.234375 11.886719 15.148438 C 11.886719 15.0625 11.855469 14.988281 11.792969 14.925781 C 11.734375 14.863281 11.65625 14.832031 11.570312 14.832031 C 11.484375 14.832031 11.410156 14.800781 11.347656 14.738281 C 11.285156 14.679688 11.253906 14.601562 11.253906 14.515625 C 11.253906 14.429688 11.285156 14.355469 11.347656 14.292969 C 11.410156 14.230469 11.484375 14.199219 11.570312 14.199219 C 11.734375 14.199219 11.835938 14.121094 11.878906 13.960938 C 11.917969 13.800781 11.863281 13.683594 11.71875 13.605469 C 11.402344 13.425781 11.246094 13.15625 11.253906 12.789062 L 11.253906 11.671875 C 11.253906 11.15625 10.964844 10.722656 10.621094 10.722656 C 9.925781 10.722656 9.359375 10.015625 9.359375 9.144531 L 9.359375 8.828125 C 9.359375 8.738281 9.390625 8.664062 9.449219 8.605469 C 9.511719 8.542969 9.585938 8.511719 9.675781 8.511719 C 9.761719 8.511719 9.835938 8.542969 9.898438 8.605469 C 9.960938 8.664062 9.992188 8.738281 9.992188 8.828125 L 9.992188 9.144531 C 9.992188 9.65625 10.28125 10.089844 10.621094 10.089844 C 11.320312 10.089844 11.886719 10.800781 11.886719 11.671875 L 11.886719 12.789062 C 11.882812 12.902344 11.925781 12.988281 12.019531 13.046875 C 12.148438 13.117188 12.253906 13.210938 12.339844 13.328125 C 12.425781 13.445312 12.480469 13.578125 12.503906 13.71875 C 12.53125 13.863281 12.523438 14.003906 12.480469 14.144531 C 12.441406 14.285156 12.375 14.40625 12.277344 14.515625 C 12.402344 14.65625 12.476562 14.816406 12.507812 15.003906 C 12.535156 15.1875 12.511719 15.363281 12.4375 15.535156 C 12.359375 15.707031 12.242188 15.84375 12.085938 15.945312 C 11.929688 16.046875 11.757812 16.097656 11.570312 16.097656 Z M 11.570312 16.097656 " fill-opacity="1" fill-rule="nonzero"/><path fill="#ffffff" d="M 5.882812 14.199219 L 11.570312 14.199219 L 11.570312 14.832031 L 5.882812 14.832031 Z M 5.882812 14.199219 " fill-opacity="1" fill-rule="nonzero"/><path fill="#ffffff" d="M 5.882812 15.464844 L 11.570312 15.464844 L 11.570312 16.097656 L 5.882812 16.097656 Z M 5.882812 15.464844 " fill-opacity="1" fill-rule="nonzero"/><path fill="#ffffff" d="M 10.621094 13.566406 L 6.828125 13.566406 C 6.742188 13.566406 6.667969 13.535156 6.605469 13.476562 C 6.542969 13.414062 6.515625 13.339844 6.515625 13.25 C 6.515625 13.164062 6.542969 13.089844 6.605469 13.027344 C 6.667969 12.964844 6.742188 12.9375 6.828125 12.9375 L 10.621094 12.9375 C 10.710938 12.9375 10.785156 12.964844 10.847656 13.027344 C 10.90625 13.089844 10.9375 13.164062 10.9375 13.25 C 10.9375 13.339844 10.90625 13.414062 10.847656 13.476562 C 10.785156 13.535156 10.710938 13.566406 10.621094 13.566406 Z M 10.621094 13.566406 " fill-opacity="1" fill-rule="nonzero"/><path fill="#ffffff" d="M 9.359375 17.359375 L 6.828125 17.359375 C 6.742188 17.359375 6.667969 17.328125 6.605469 17.269531 C 6.542969 17.207031 6.515625 17.132812 6.515625 17.042969 C 6.515625 16.957031 6.542969 16.882812 6.605469 16.820312 C 6.667969 16.757812 6.742188 16.730469 6.828125 16.730469 L 9.359375 16.730469 C 9.445312 16.730469 9.519531 16.757812 9.582031 16.820312 C 9.644531 16.882812 9.675781 16.957031 9.675781 17.042969 C 9.675781 17.132812 9.644531 17.207031 9.582031 17.269531 C 9.519531 17.328125 9.445312 17.359375 9.359375 17.359375 Z M 9.359375 17.359375 " fill-opacity="1" fill-rule="nonzero"/><path fill="#ffffff" d="M 18.839844 22.734375 L 16.945312 22.734375 L 16.945312 22.101562 L 18.523438 22.101562 L 18.523438 10.722656 L 11.253906 10.722656 L 11.253906 10.089844 L 18.839844 10.089844 C 18.925781 10.089844 19 10.121094 19.0625 10.183594 C 19.125 10.246094 19.15625 10.320312 19.15625 10.40625 L 19.15625 22.417969 C 19.15625 22.503906 19.125 22.578125 19.0625 22.640625 C 19 22.703125 18.925781 22.734375 18.839844 22.734375 Z M 18.839844 22.734375 " fill-opacity="1" fill-rule="nonzero"/><path fill="#ffffff" d="M 21.367188 22.734375 L 18.839844 22.734375 C 18.753906 22.734375 18.679688 22.703125 18.617188 22.640625 C 18.554688 22.578125 18.523438 22.503906 18.523438 22.417969 C 18.523438 22.332031 18.554688 22.253906 18.617188 22.195312 C 18.679688 22.132812 18.753906 22.101562 18.839844 22.101562 L 21.050781 22.101562 L 21.050781 10.480469 L 20.105469 8.585938 L 19.125 10.546875 C 19.085938 10.625 19.023438 10.679688 18.941406 10.707031 C 18.859375 10.734375 18.777344 10.730469 18.699219 10.691406 C 18.621094 10.652344 18.570312 10.589844 18.542969 10.507812 C 18.515625 10.425781 18.519531 10.34375 18.558594 10.265625 L 19.824219 7.738281 C 19.851562 7.6875 19.894531 7.648438 19.941406 7.621094 C 19.992188 7.589844 20.046875 7.578125 20.105469 7.578125 C 20.164062 7.578125 20.21875 7.589844 20.269531 7.621094 C 20.320312 7.648438 20.359375 7.6875 20.390625 7.738281 L 21.652344 10.265625 C 21.675781 10.3125 21.683594 10.359375 21.683594 10.40625 L 21.683594 22.417969 C 21.683594 22.503906 21.652344 22.578125 21.59375 22.640625 C 21.53125 22.703125 21.457031 22.734375 21.367188 22.734375 Z M 21.367188 22.734375 " fill-opacity="1" fill-rule="nonzero"/><path fill="#ffffff" d="M 11.253906 10.722656 C 11.199219 10.722656 11.148438 10.710938 11.101562 10.683594 C 11.054688 10.65625 11.015625 10.621094 10.984375 10.574219 C 10.957031 10.527344 10.941406 10.476562 10.9375 10.421875 C 10.9375 10.367188 10.949219 10.316406 10.972656 10.265625 L 12.238281 7.738281 C 12.277344 7.660156 12.335938 7.605469 12.417969 7.578125 C 12.5 7.550781 12.582031 7.558594 12.660156 7.597656 C 12.738281 7.636719 12.792969 7.695312 12.820312 7.777344 C 12.847656 7.863281 12.839844 7.941406 12.800781 8.019531 L 11.539062 10.546875 C 11.480469 10.664062 11.386719 10.722656 11.253906 10.722656 Z M 11.253906 10.722656 " fill-opacity="1" fill-rule="nonzero"/><path fill="#ffffff" d="M 20.105469 8.195312 L 12.519531 8.195312 C 12.433594 8.195312 12.355469 8.164062 12.296875 8.101562 C 12.234375 8.039062 12.203125 7.964844 12.203125 7.878906 L 12.203125 5.984375 C 12.203125 5.722656 12.296875 5.496094 12.480469 5.3125 C 12.664062 5.125 12.890625 5.035156 13.152344 5.035156 L 19.472656 5.035156 C 19.734375 5.035156 19.957031 5.125 20.144531 5.3125 C 20.328125 5.496094 20.421875 5.722656 20.421875 5.984375 L 20.421875 7.878906 C 20.421875 7.964844 20.390625 8.039062 20.328125 8.101562 C 20.265625 8.164062 20.191406 8.195312 20.105469 8.195312 Z M 12.835938 7.5625 L 19.789062 7.5625 L 19.789062 5.984375 C 19.789062 5.894531 19.757812 5.820312 19.695312 5.757812 C 19.632812 5.699219 19.558594 5.667969 19.472656 5.667969 L 13.152344 5.667969 C 13.0625 5.667969 12.988281 5.699219 12.925781 5.757812 C 12.867188 5.820312 12.835938 5.894531 12.835938 5.984375 Z M 12.835938 7.5625 " fill-opacity="1" fill-rule="nonzero"/><g clip-path="url(#1c1f835508)"><path fill="#ffffff" d="M 24.214844 22.101562 L 21.367188 22.101562 C 21.28125 22.101562 21.207031 22.070312 21.144531 22.007812 C 21.082031 21.945312 21.050781 21.871094 21.050781 21.785156 C 21.050781 21.699219 21.082031 21.625 21.144531 21.5625 C 21.207031 21.5 21.28125 21.46875 21.367188 21.46875 L 24.214844 21.46875 C 24.300781 21.46875 24.375 21.4375 24.4375 21.375 C 24.5 21.316406 24.527344 21.242188 24.527344 21.152344 L 24.527344 17.675781 C 24.527344 17.414062 24.429688 17.1875 24.242188 17.003906 C 24.050781 16.816406 23.824219 16.726562 23.5625 16.730469 C 23.394531 16.726562 23.238281 16.691406 23.085938 16.625 C 22.933594 16.558594 22.796875 16.46875 22.683594 16.351562 C 22.566406 16.230469 22.476562 16.097656 22.414062 15.941406 C 22.347656 15.789062 22.316406 15.628906 22.316406 15.464844 L 22.316406 14.832031 C 22.316406 14.746094 22.347656 14.671875 22.410156 14.609375 C 22.472656 14.546875 22.546875 14.515625 22.632812 14.515625 C 22.71875 14.515625 22.792969 14.546875 22.855469 14.609375 C 22.917969 14.671875 22.949219 14.746094 22.949219 14.832031 L 22.949219 15.464844 C 22.949219 15.636719 23.011719 15.785156 23.132812 15.90625 C 23.253906 16.03125 23.398438 16.09375 23.570312 16.097656 C 23.78125 16.097656 23.984375 16.136719 24.179688 16.214844 C 24.371094 16.296875 24.542969 16.410156 24.695312 16.558594 C 24.84375 16.707031 24.957031 16.875 25.039062 17.070312 C 25.121094 17.265625 25.160156 17.464844 25.160156 17.675781 L 25.160156 21.152344 C 25.160156 21.414062 25.070312 21.640625 24.882812 21.824219 C 24.699219 22.007812 24.476562 22.101562 24.214844 22.101562 Z M 24.214844 22.101562 " fill-opacity="1" fill-rule="nonzero"/></g><path fill="#ffffff" d="M 23.265625 15.148438 L 21.367188 15.148438 C 21.28125 15.148438 21.207031 15.117188 21.144531 15.054688 C 21.082031 14.992188 21.050781 14.917969 21.050781 14.832031 L 21.050781 13.566406 C 21.050781 13.480469 21.082031 13.40625 21.144531 13.34375 C 21.207031 13.28125 21.28125 13.25 21.367188 13.25 L 22.632812 13.25 C 22.894531 13.25 23.117188 13.34375 23.304688 13.53125 C 23.488281 13.714844 23.582031 13.9375 23.582031 14.199219 L 23.582031 14.832031 C 23.582031 14.917969 23.550781 14.992188 23.488281 15.054688 C 23.425781 15.117188 23.351562 15.148438 23.265625 15.148438 Z M 21.683594 14.515625 L 22.949219 14.515625 L 22.949219 14.199219 C 22.949219 14.113281 22.917969 14.039062 22.855469 13.976562 C 22.792969 13.914062 22.71875 13.882812 22.632812 13.882812 L 21.683594 13.882812 Z M 21.683594 14.515625 " fill-opacity="1" fill-rule="nonzero"/><path fill="#ffffff" d="M 23.265625 20.835938 L 21.367188 20.835938 C 21.28125 20.835938 21.207031 20.804688 21.144531 20.746094 C 21.082031 20.683594 21.050781 20.609375 21.050781 20.519531 C 21.050781 20.433594 21.082031 20.359375 21.144531 20.296875 C 21.207031 20.234375 21.28125 20.207031 21.367188 20.207031 L 22.949219 20.207031 L 22.949219 17.992188 L 21.367188 17.992188 C 21.28125 17.992188 21.207031 17.960938 21.144531 17.898438 C 21.082031 17.839844 21.050781 17.765625 21.050781 17.675781 C 21.050781 17.589844 21.082031 17.515625 21.144531 17.453125 C 21.207031 17.390625 21.28125 17.359375 21.367188 17.359375 L 23.265625 17.359375 C 23.351562 17.359375 23.425781 17.390625 23.488281 17.453125 C 23.550781 17.515625 23.582031 17.589844 23.582031 17.675781 L 23.582031 20.519531 C 23.582031 20.609375 23.550781 20.683594 23.488281 20.746094 C 23.425781 20.804688 23.351562 20.835938 23.265625 20.835938 Z M 23.265625 20.835938 " fill-opacity="1" fill-rule="nonzero"/><path fill="#ffffff" d="M 17.574219 17.042969 L 16.945312 17.042969 L 16.945312 12.304688 L 12.519531 12.304688 L 12.519531 16.414062 L 11.886719 16.414062 L 11.886719 11.988281 C 11.886719 11.898438 11.917969 11.824219 11.980469 11.765625 C 12.042969 11.703125 12.117188 11.671875 12.203125 11.671875 L 17.261719 11.671875 C 17.347656 11.671875 17.421875 11.703125 17.484375 11.765625 C 17.546875 11.824219 17.574219 11.898438 17.574219 11.988281 Z M 17.574219 17.042969 " fill-opacity="1" fill-rule="nonzero"/></svg>