<svg xmlns="http://www.w3.org/2000/svg" xmlns:xlink="http://www.w3.org/1999/xlink" width="40" zoomAndPan="magnify" viewBox="0 0 30 30.000001" height="40" preserveAspectRatio="xMidYMid meet" version="1.0"><defs><clipPath id="b1a666dd4e"><path d="M 4.839844 6.195312 L 17 6.195312 L 17 22.890625 L 4.839844 22.890625 Z M 4.839844 6.195312 " clip-rule="nonzero"/></clipPath><clipPath id="b682483434"><path d="M 21 7 L 25.160156 7 L 25.160156 22 L 21 22 Z M 21 7 " clip-rule="nonzero"/></clipPath><clipPath id="92cba74100"><path d="M 4.839844 6.195312 L 17 6.195312 L 17 22.890625 L 4.839844 22.890625 Z M 4.839844 6.195312 " clip-rule="nonzero"/></clipPath><clipPath id="70efa01289"><path d="M 21 7 L 25.160156 7 L 25.160156 22 L 21 22 Z M 21 7 " clip-rule="nonzero"/></clipPath></defs><path fill="#ffffff" d="M 13.328125 9.269531 C 13.535156 9.269531 13.707031 9.101562 13.707031 8.890625 C 13.707031 8.683594 13.535156 8.511719 13.328125 8.511719 C 10.019531 8.511719 7.324219 11.207031 7.324219 14.515625 C 7.324219 17.824219 10.019531 20.515625 13.328125 20.515625 C 13.535156 20.515625 13.707031 20.347656 13.707031 20.136719 C 13.707031 19.929688 13.535156 19.757812 13.328125 19.757812 C 10.4375 19.757812 8.082031 17.40625 8.082031 14.515625 C 8.082031 11.625 10.4375 9.269531 13.328125 9.269531 Z M 13.328125 9.269531 " fill-opacity="1" fill-rule="nonzero"/><g clip-path="url(#b1a666dd4e)"><path fill="#ffffff" d="M 15.949219 21.546875 C 15.0625 21.898438 14.125 22.074219 13.164062 22.074219 C 8.996094 22.074219 5.605469 18.683594 5.605469 14.515625 C 5.605469 10.347656 8.996094 6.957031 13.164062 6.957031 C 13.773438 6.957031 14.378906 7.027344 14.964844 7.171875 C 15.171875 7.222656 15.375 7.097656 15.425781 6.894531 C 15.476562 6.691406 15.351562 6.484375 15.148438 6.433594 C 14.5 6.277344 13.835938 6.195312 13.164062 6.195312 C 8.578125 6.195312 4.847656 9.929688 4.847656 14.515625 C 4.847656 19.101562 8.578125 22.832031 13.164062 22.832031 C 14.222656 22.832031 15.253906 22.636719 16.226562 22.25 C 16.421875 22.171875 16.519531 21.953125 16.441406 21.757812 C 16.363281 21.5625 16.144531 21.46875 15.949219 21.546875 Z M 15.949219 21.546875 " fill-opacity="1" fill-rule="nonzero"/></g><path fill="#ffffff" d="M 20.230469 7.988281 C 20.019531 7.988281 19.851562 8.160156 19.851562 8.367188 L 19.851562 12.507812 C 19.851562 12.695312 19.746094 12.871094 19.578125 12.957031 L 18.980469 13.269531 C 18.628906 13.453125 18.414062 13.808594 18.414062 14.203125 L 18.414062 21.054688 C 18.414062 21.144531 18.339844 21.21875 18.25 21.21875 L 18.066406 21.21875 C 17.976562 21.21875 17.90625 21.144531 17.90625 21.054688 L 17.90625 14.203125 C 17.90625 13.808594 17.6875 13.453125 17.339844 13.269531 L 16.738281 12.957031 C 16.570312 12.871094 16.46875 12.695312 16.46875 12.507812 L 16.46875 8.367188 C 16.46875 8.160156 16.296875 7.988281 16.085938 7.988281 C 15.878906 7.988281 15.707031 8.160156 15.707031 8.367188 L 15.707031 12.507812 C 15.707031 12.980469 15.96875 13.410156 16.390625 13.628906 L 16.988281 13.941406 C 17.085938 13.992188 17.144531 14.09375 17.144531 14.203125 L 17.144531 21.054688 C 17.144531 21.5625 17.558594 21.976562 18.066406 21.976562 L 18.25 21.976562 C 18.757812 21.976562 19.171875 21.5625 19.171875 21.054688 L 19.171875 14.203125 C 19.171875 14.09375 19.230469 13.992188 19.328125 13.941406 L 19.929688 13.628906 C 20.347656 13.410156 20.609375 12.980469 20.609375 12.507812 L 20.609375 8.367188 C 20.609375 8.160156 20.4375 7.988281 20.230469 7.988281 Z M 20.230469 7.988281 " fill-opacity="1" fill-rule="nonzero"/><path fill="#ffffff" d="M 17.527344 12.265625 C 17.734375 12.265625 17.90625 12.09375 17.90625 11.886719 L 17.90625 8.367188 C 17.90625 8.160156 17.734375 7.988281 17.527344 7.988281 C 17.316406 7.988281 17.144531 8.160156 17.144531 8.367188 L 17.144531 11.886719 C 17.144531 12.09375 17.316406 12.265625 17.527344 12.265625 Z M 17.527344 12.265625 " fill-opacity="1" fill-rule="nonzero"/><path fill="#ffffff" d="M 18.792969 12.265625 C 19 12.265625 19.171875 12.09375 19.171875 11.886719 L 19.171875 8.367188 C 19.171875 8.160156 19 7.988281 18.792969 7.988281 C 18.582031 7.988281 18.414062 8.160156 18.414062 8.367188 L 18.414062 11.886719 C 18.414062 12.09375 18.582031 12.265625 18.792969 12.265625 Z M 18.792969 12.265625 " fill-opacity="1" fill-rule="nonzero"/><g clip-path="url(#b682483434)"><path fill="#ffffff" d="M 24.960938 7.109375 C 24.839844 7.039062 24.691406 7.035156 24.570312 7.101562 L 23.828125 7.519531 C 23.066406 7.945312 22.441406 8.578125 22.027344 9.34375 C 21.660156 10.015625 21.46875 10.777344 21.46875 11.542969 L 21.46875 15.023438 C 21.46875 15.332031 21.71875 15.585938 22.027344 15.585938 L 22.464844 15.585938 L 22.464844 21.019531 C 22.464844 21.546875 22.894531 21.976562 23.421875 21.976562 L 24.199219 21.976562 C 24.726562 21.976562 25.152344 21.546875 25.152344 21.019531 L 25.152344 7.445312 C 25.152344 7.308594 25.078125 7.175781 24.960938 7.109375 Z M 24.394531 21.019531 C 24.394531 21.128906 24.308594 21.21875 24.199219 21.21875 L 23.421875 21.21875 C 23.3125 21.21875 23.226562 21.128906 23.226562 21.019531 L 23.226562 15.585938 L 24.394531 15.585938 Z M 22.464844 14.824219 L 22.226562 14.824219 L 22.226562 11.542969 C 22.226562 10.902344 22.390625 10.265625 22.695312 9.707031 C 23.042969 9.0625 23.5625 8.535156 24.199219 8.179688 L 24.394531 8.070312 L 24.394531 14.824219 Z M 22.464844 14.824219 " fill-opacity="1" fill-rule="nonzero"/></g><path fill="#ffffff" d="M 13.328125 9.269531 C 13.535156 9.269531 13.707031 9.101562 13.707031 8.890625 C 13.707031 8.683594 13.535156 8.511719 13.328125 8.511719 C 10.019531 8.511719 7.324219 11.207031 7.324219 14.515625 C 7.324219 17.824219 10.019531 20.515625 13.328125 20.515625 C 13.535156 20.515625 13.707031 20.347656 13.707031 20.136719 C 13.707031 19.929688 13.535156 19.757812 13.328125 19.757812 C 10.4375 19.757812 8.082031 17.40625 8.082031 14.515625 C 8.082031 11.625 10.4375 9.269531 13.328125 9.269531 Z M 13.328125 9.269531 " fill-opacity="1" fill-rule="nonzero"/><g clip-path="url(#92cba74100)"><path fill="#ffffff" d="M 15.949219 21.546875 C 15.0625 21.898438 14.125 22.074219 13.164062 22.074219 C 8.996094 22.074219 5.605469 18.683594 5.605469 14.515625 C 5.605469 10.347656 8.996094 6.957031 13.164062 6.957031 C 13.773438 6.957031 14.378906 7.027344 14.964844 7.171875 C 15.171875 7.222656 15.375 7.097656 15.425781 6.894531 C 15.476562 6.691406 15.351562 6.484375 15.148438 6.433594 C 14.5 6.277344 13.835938 6.195312 13.164062 6.195312 C 8.578125 6.195312 4.847656 9.929688 4.847656 14.515625 C 4.847656 19.101562 8.578125 22.832031 13.164062 22.832031 C 14.222656 22.832031 15.253906 22.636719 16.226562 22.25 C 16.421875 22.171875 16.519531 21.953125 16.441406 21.757812 C 16.363281 21.5625 16.144531 21.46875 15.949219 21.546875 Z M 15.949219 21.546875 " fill-opacity="1" fill-rule="nonzero"/></g><path fill="#ffffff" d="M 20.230469 7.988281 C 20.019531 7.988281 19.851562 8.160156 19.851562 8.367188 L 19.851562 12.507812 C 19.851562 12.695312 19.746094 12.871094 19.578125 12.957031 L 18.980469 13.269531 C 18.628906 13.453125 18.414062 13.808594 18.414062 14.203125 L 18.414062 21.054688 C 18.414062 21.144531 18.339844 21.21875 18.25 21.21875 L 18.066406 21.21875 C 17.976562 21.21875 17.90625 21.144531 17.90625 21.054688 L 17.90625 14.203125 C 17.90625 13.808594 17.6875 13.453125 17.339844 13.269531 L 16.738281 12.957031 C 16.570312 12.871094 16.46875 12.695312 16.46875 12.507812 L 16.46875 8.367188 C 16.46875 8.160156 16.296875 7.988281 16.085938 7.988281 C 15.878906 7.988281 15.707031 8.160156 15.707031 8.367188 L 15.707031 12.507812 C 15.707031 12.980469 15.96875 13.410156 16.390625 13.628906 L 16.988281 13.941406 C 17.085938 13.992188 17.144531 14.09375 17.144531 14.203125 L 17.144531 21.054688 C 17.144531 21.5625 17.558594 21.976562 18.066406 21.976562 L 18.25 21.976562 C 18.757812 21.976562 19.171875 21.5625 19.171875 21.054688 L 19.171875 14.203125 C 19.171875 14.09375 19.230469 13.992188 19.328125 13.941406 L 19.929688 13.628906 C 20.347656 13.410156 20.609375 12.980469 20.609375 12.507812 L 20.609375 8.367188 C 20.609375 8.160156 20.4375 7.988281 20.230469 7.988281 Z M 20.230469 7.988281 " fill-opacity="1" fill-rule="nonzero"/><path fill="#ffffff" d="M 17.527344 12.265625 C 17.734375 12.265625 17.90625 12.09375 17.90625 11.886719 L 17.90625 8.367188 C 17.90625 8.160156 17.734375 7.988281 17.527344 7.988281 C 17.316406 7.988281 17.144531 8.160156 17.144531 8.367188 L 17.144531 11.886719 C 17.144531 12.09375 17.316406 12.265625 17.527344 12.265625 Z M 17.527344 12.265625 " fill-opacity="1" fill-rule="nonzero"/><path fill="#ffffff" d="M 18.792969 12.265625 C 19 12.265625 19.171875 12.09375 19.171875 11.886719 L 19.171875 8.367188 C 19.171875 8.160156 19 7.988281 18.792969 7.988281 C 18.582031 7.988281 18.414062 8.160156 18.414062 8.367188 L 18.414062 11.886719 C 18.414062 12.09375 18.582031 12.265625 18.792969 12.265625 Z M 18.792969 12.265625 " fill-opacity="1" fill-rule="nonzero"/><g clip-path="url(#70efa01289)"><path fill="#ffffff" d="M 24.960938 7.109375 C 24.839844 7.039062 24.691406 7.035156 24.570312 7.101562 L 23.828125 7.519531 C 23.066406 7.945312 22.441406 8.578125 22.027344 9.34375 C 21.660156 10.015625 21.46875 10.777344 21.46875 11.542969 L 21.46875 15.023438 C 21.46875 15.332031 21.71875 15.585938 22.027344 15.585938 L 22.464844 15.585938 L 22.464844 21.019531 C 22.464844 21.546875 22.894531 21.976562 23.421875 21.976562 L 24.199219 21.976562 C 24.726562 21.976562 25.152344 21.546875 25.152344 21.019531 L 25.152344 7.445312 C 25.152344 7.308594 25.078125 7.175781 24.960938 7.109375 Z M 24.394531 21.019531 C 24.394531 21.128906 24.308594 21.21875 24.199219 21.21875 L 23.421875 21.21875 C 23.3125 21.21875 23.226562 21.128906 23.226562 21.019531 L 23.226562 15.585938 L 24.394531 15.585938 Z M 22.464844 14.824219 L 22.226562 14.824219 L 22.226562 11.542969 C 22.226562 10.902344 22.390625 10.265625 22.695312 9.707031 C 23.042969 9.0625 23.5625 8.535156 24.199219 8.179688 L 24.394531 8.070312 L 24.394531 14.824219 Z M 22.464844 14.824219 " fill-opacity="1" fill-rule="nonzero"/></g></svg>