<svg xmlns="http://www.w3.org/2000/svg" xmlns:xlink="http://www.w3.org/1999/xlink" width="40" zoomAndPan="magnify" viewBox="0 0 30 30.000001" height="40" preserveAspectRatio="xMidYMid meet" version="1.0"><defs><clipPath id="e53dc8f7fd"><path d="M 6 7 L 25 7 L 25 25.847656 L 6 25.847656 Z M 6 7 " clip-rule="nonzero"/></clipPath><clipPath id="e6863e9592"><path d="M 15 7 L 25 7 L 25 25.847656 L 15 25.847656 Z M 15 7 " clip-rule="nonzero"/></clipPath><clipPath id="3cfc1090d6"><path d="M 5 7 L 25 7 L 25 25.847656 L 5 25.847656 Z M 5 7 " clip-rule="nonzero"/></clipPath><clipPath id="d79aff51ed"><path d="M 4.578125 4.074219 L 9 4.074219 L 9 25 L 4.578125 25 Z M 4.578125 4.074219 " clip-rule="nonzero"/></clipPath><clipPath id="a13f767234"><path d="M 6 5 L 9 5 L 9 25.847656 L 6 25.847656 Z M 6 5 " clip-rule="nonzero"/></clipPath><clipPath id="11b16adab8"><path d="M 4.578125 4.074219 L 10 4.074219 L 10 25.847656 L 4.578125 25.847656 Z M 4.578125 4.074219 " clip-rule="nonzero"/></clipPath><clipPath id="50fbb4e7d1"><path d="M 21 4.074219 L 25.628906 4.074219 L 25.628906 25 L 21 25 Z M 21 4.074219 " clip-rule="nonzero"/></clipPath><clipPath id="cbb438ff76"><path d="M 21 4.074219 L 24 4.074219 L 24 25 L 21 25 Z M 21 4.074219 " clip-rule="nonzero"/></clipPath><clipPath id="3a6ebab809"><path d="M 21 4.074219 L 25.628906 4.074219 L 25.628906 25.847656 L 21 25.847656 Z M 21 4.074219 " clip-rule="nonzero"/></clipPath><clipPath id="fa74fbf47c"><path d="M 6 7 L 25 7 L 25 25.847656 L 6 25.847656 Z M 6 7 " clip-rule="nonzero"/></clipPath><clipPath id="e38201d62d"><path d="M 15 7 L 25 7 L 25 25.847656 L 15 25.847656 Z M 15 7 " clip-rule="nonzero"/></clipPath><clipPath id="c5304578fe"><path d="M 5 7 L 25 7 L 25 25.847656 L 5 25.847656 Z M 5 7 " clip-rule="nonzero"/></clipPath><clipPath id="b6d81ed287"><path d="M 4.578125 4.074219 L 9 4.074219 L 9 25 L 4.578125 25 Z M 4.578125 4.074219 " clip-rule="nonzero"/></clipPath><clipPath id="0a9795b40c"><path d="M 6 5 L 9 5 L 9 25.847656 L 6 25.847656 Z M 6 5 " clip-rule="nonzero"/></clipPath><clipPath id="3df26e2256"><path d="M 4.578125 4.074219 L 10 4.074219 L 10 25.847656 L 4.578125 25.847656 Z M 4.578125 4.074219 " clip-rule="nonzero"/></clipPath><clipPath id="f58582f740"><path d="M 21 4.074219 L 25.628906 4.074219 L 25.628906 25 L 21 25 Z M 21 4.074219 " clip-rule="nonzero"/></clipPath><clipPath id="3795262814"><path d="M 21 4.074219 L 24 4.074219 L 24 25 L 21 25 Z M 21 4.074219 " clip-rule="nonzero"/></clipPath><clipPath id="879ffdd391"><path d="M 21 4.074219 L 25.628906 4.074219 L 25.628906 25.847656 L 21 25.847656 Z M 21 4.074219 " clip-rule="nonzero"/></clipPath></defs><g clip-path="url(#e53dc8f7fd)"><path fill="#ffffff" d="M 24.207031 16.78125 C 24.207031 21.753906 20.179688 25.785156 15.207031 25.785156 C 10.234375 25.785156 6.203125 21.753906 6.203125 16.78125 C 6.203125 11.808594 10.234375 7.777344 15.207031 7.777344 C 20.179688 7.777344 24.207031 11.808594 24.207031 16.78125 Z M 24.207031 16.78125 " fill-opacity="1" fill-rule="nonzero"/></g><g clip-path="url(#e6863e9592)"><path fill="#ffffff" d="M 15.207031 7.777344 C 20.179688 7.777344 24.207031 11.808594 24.207031 16.78125 C 24.207031 21.753906 20.179688 25.785156 15.207031 25.785156 " fill-opacity="1" fill-rule="nonzero"/></g><g clip-path="url(#3cfc1090d6)"><path stroke-linecap="round" transform="matrix(0.17448, 0, 0, 0.17448, 3.218564, 3.329594)" fill="none" stroke-linejoin="round" d="M 120.291525 77.095685 C 120.291525 105.595546 97.209548 128.699912 68.709686 128.699912 C 40.209825 128.699912 17.105459 105.595546 17.105459 77.095685 C 17.105459 48.595823 40.209825 25.491458 68.709686 25.491458 C 97.209548 25.491458 120.291525 48.595823 120.291525 77.095685 Z M 120.291525 77.095685 " stroke="#33363a" stroke-width="3" stroke-opacity="1" stroke-miterlimit="10"/></g><path fill="#ffffff" d="M 20.769531 16.78125 C 20.769531 17.148438 20.734375 17.507812 20.664062 17.867188 C 20.59375 18.226562 20.488281 18.574219 20.347656 18.910156 C 20.207031 19.25 20.035156 19.570312 19.832031 19.875 C 19.628906 20.179688 19.398438 20.460938 19.140625 20.71875 C 18.882812 20.976562 18.601562 21.207031 18.296875 21.410156 C 17.992188 21.613281 17.671875 21.785156 17.335938 21.925781 C 16.996094 22.0625 16.648438 22.167969 16.292969 22.242188 C 15.933594 22.3125 15.570312 22.347656 15.207031 22.347656 C 14.839844 22.347656 14.476562 22.3125 14.121094 22.242188 C 13.761719 22.167969 13.414062 22.0625 13.074219 21.925781 C 12.738281 21.785156 12.417969 21.613281 12.113281 21.410156 C 11.808594 21.207031 11.527344 20.976562 11.269531 20.71875 C 11.011719 20.460938 10.78125 20.179688 10.578125 19.875 C 10.375 19.570312 10.203125 19.25 10.0625 18.910156 C 9.921875 18.574219 9.816406 18.226562 9.746094 17.867188 C 9.675781 17.507812 9.640625 17.148438 9.640625 16.78125 C 9.640625 16.417969 9.675781 16.054688 9.746094 15.695312 C 9.816406 15.335938 9.921875 14.988281 10.0625 14.652344 C 10.203125 14.3125 10.375 13.992188 10.578125 13.691406 C 10.78125 13.386719 11.011719 13.105469 11.269531 12.847656 C 11.527344 12.585938 11.808594 12.355469 12.113281 12.152344 C 12.417969 11.949219 12.738281 11.78125 13.074219 11.640625 C 13.414062 11.5 13.761719 11.394531 14.121094 11.324219 C 14.476562 11.25 14.839844 11.214844 15.207031 11.214844 C 15.570312 11.214844 15.933594 11.25 16.292969 11.324219 C 16.648438 11.394531 16.996094 11.5 17.335938 11.640625 C 17.671875 11.78125 17.992188 11.949219 18.296875 12.152344 C 18.601562 12.355469 18.882812 12.585938 19.140625 12.847656 C 19.398438 13.105469 19.628906 13.386719 19.832031 13.691406 C 20.035156 13.992188 20.207031 14.3125 20.347656 14.652344 C 20.488281 14.988281 20.59375 15.335938 20.664062 15.695312 C 20.734375 16.054688 20.769531 16.417969 20.769531 16.78125 Z M 20.769531 16.78125 " fill-opacity="1" fill-rule="nonzero"/><path fill="#ffffff" d="M 9.621094 16.78125 C 9.621094 13.710938 12.117188 11.214844 15.1875 11.214844 C 18.257812 11.214844 20.753906 13.710938 20.753906 16.78125 " fill-opacity="1" fill-rule="nonzero"/><path stroke-linecap="round" transform="matrix(0.17448, 0, 0, 0.17448, 3.218564, 3.329594)" fill="none" stroke-linejoin="round" d="M 100.590128 77.095685 C 100.590128 79.200152 100.388637 81.259844 99.985654 83.319535 C 99.582671 85.379227 98.978196 87.371754 98.17223 89.297118 C 97.366264 91.24487 96.381194 93.080682 95.21702 94.826942 C 94.052847 96.573202 92.731958 98.185135 91.254353 99.662739 C 89.776748 101.140344 88.164816 102.461233 86.418556 103.625407 C 84.672295 104.78958 82.836483 105.77465 80.91112 106.580616 C 78.963368 107.364195 76.97084 107.968669 74.933537 108.39404 C 72.873845 108.797023 70.791766 108.998515 68.709686 108.998515 C 66.605219 108.998515 64.523139 108.797023 62.485836 108.39404 C 60.426144 107.968669 58.433617 107.364195 56.485865 106.580616 C 54.560501 105.77465 52.724689 104.78958 50.978429 103.625407 C 49.232169 102.461233 47.620236 101.140344 46.142632 99.662739 C 44.665027 98.185135 43.344138 96.573202 42.179964 94.826942 C 41.015791 93.080682 40.030721 91.24487 39.224755 89.297118 C 38.418789 87.371754 37.814314 85.379227 37.411331 83.319535 C 37.008348 81.259844 36.806856 79.200152 36.806856 77.095685 C 36.806856 75.013605 37.008348 72.931526 37.411331 70.871834 C 37.814314 68.812143 38.418789 66.819615 39.224755 64.894252 C 40.030721 62.9465 41.015791 61.110688 42.179964 59.386816 C 43.344138 57.640555 44.665027 56.028623 46.142632 54.551018 C 47.620236 53.051025 49.232169 51.730136 50.978429 50.565963 C 52.724689 49.401789 54.560501 48.439108 56.485865 47.633141 C 58.433617 46.827175 60.426144 46.2227 62.485836 45.819717 C 64.523139 45.394346 66.605219 45.192855 68.709686 45.192855 C 70.791766 45.192855 72.873845 45.394346 74.933537 45.819717 C 76.97084 46.2227 78.963368 46.827175 80.91112 47.633141 C 82.836483 48.439108 84.672295 49.401789 86.418556 50.565963 C 88.164816 51.730136 89.776748 53.051025 91.254353 54.551018 C 92.731958 56.028623 94.052847 57.640555 95.21702 59.386816 C 96.381194 61.110688 97.366264 62.9465 98.17223 64.894252 C 98.978196 66.819615 99.582671 68.812143 99.985654 70.871834 C 100.388637 72.931526 100.590128 75.013605 100.590128 77.095685 Z M 100.590128 77.095685 " stroke="#33363a" stroke-width="3" stroke-opacity="1" stroke-miterlimit="10"/><path fill="#ffffff" d="M 16.96875 14.199219 C 16.164062 14.199219 15.46875 14.652344 15.222656 15.316406 C 15.222656 15.332031 15.222656 15.332031 15.207031 15.351562 C 15.207031 15.351562 15.1875 15.332031 15.1875 15.316406 C 14.945312 14.652344 14.226562 14.199219 13.425781 14.199219 C 12.414062 14.199219 11.59375 14.933594 11.59375 15.824219 C 11.59375 16.152344 11.699219 16.46875 11.90625 16.730469 C 12.117188 16.992188 11.925781 16.746094 11.925781 16.746094 L 15.207031 20.621094 L 18.484375 16.746094 C 18.484375 16.746094 18.503906 16.730469 18.503906 16.730469 C 18.710938 16.46875 18.816406 16.152344 18.816406 15.824219 C 18.800781 14.933594 17.980469 14.199219 16.96875 14.199219 Z M 16.96875 14.199219 " fill-opacity="1" fill-rule="nonzero"/><path fill="#ffffff" d="M 15.1875 15.316406 C 14.945312 14.652344 14.226562 14.199219 13.425781 14.199219 C 12.414062 14.199219 11.59375 14.933594 11.59375 15.824219 C 11.59375 16.152344 11.699219 16.46875 11.90625 16.730469 C 12.117188 16.992188 11.925781 16.746094 11.925781 16.746094 L 15.207031 20.621094 L 15.207031 15.351562 C 15.1875 15.332031 15.1875 15.332031 15.1875 15.316406 Z M 15.1875 15.316406 " fill-opacity="1" fill-rule="nonzero"/><path stroke-linecap="round" transform="matrix(0.17448, 0, 0, 0.17448, 3.218564, 3.329594)" fill="none" stroke-linejoin="round" d="M 78.806652 62.297249 C 74.194734 62.297249 70.209679 64.894252 68.799238 68.700203 C 68.799238 68.789755 68.799238 68.789755 68.709686 68.901695 C 68.709686 68.901695 68.597747 68.789755 68.597747 68.700203 C 67.209694 64.894252 63.090311 62.297249 58.500781 62.297249 C 52.702301 62.297249 48.000832 66.506184 48.000832 71.610637 C 48.000832 73.491225 48.605306 75.304649 49.791868 76.804641 C 51.000817 78.304634 49.903807 76.894193 49.903807 76.894193 L 68.709686 99.103041 L 87.493177 76.894193 C 87.493177 76.894193 87.605117 76.804641 87.605117 76.804641 C 88.791678 75.304649 89.396153 73.491225 89.396153 71.610637 C 89.306601 66.506184 84.605132 62.297249 78.806652 62.297249 Z M 78.806652 62.297249 " stroke="#33363a" stroke-width="3" stroke-opacity="1" stroke-miterlimit="10"/><g clip-path="url(#d79aff51ed)"><path fill="#ffffff" d="M 8.835938 10.519531 C 8.835938 10.449219 8.835938 10.378906 8.820312 10.308594 C 8.820312 10.273438 8.835938 10.238281 8.835938 10.203125 C 8.835938 9.820312 8.574219 4.988281 8.261719 4.988281 C 8.015625 4.988281 7.808594 7.9375 7.71875 9.417969 L 7.371094 9.417969 C 7.285156 7.953125 7.074219 4.988281 6.832031 4.988281 C 6.585938 4.988281 6.375 7.9375 6.289062 9.417969 L 5.941406 9.417969 C 5.871094 7.9375 5.660156 4.96875 5.417969 4.96875 C 5.101562 4.96875 4.839844 9.804688 4.839844 10.1875 C 4.839844 10.222656 4.839844 10.257812 4.859375 10.292969 C 4.859375 10.359375 4.839844 10.429688 4.839844 10.5 C 4.839844 11.582031 5.433594 12.488281 6.273438 12.769531 C 5.453125 18.179688 5.363281 21.40625 5.363281 22.503906 C 5.363281 23.867188 5.75 24.964844 6.847656 24.964844 C 7.945312 24.964844 8.332031 23.867188 8.332031 22.503906 C 8.332031 21.386719 8.242188 18.179688 7.421875 12.769531 C 8.226562 12.488281 8.835938 11.582031 8.835938 10.519531 Z M 8.835938 10.519531 " fill-opacity="1" fill-rule="nonzero"/></g><g clip-path="url(#a13f767234)"><path fill="#ffffff" d="M 8.3125 22.539062 C 8.3125 21.421875 8.226562 18.210938 7.40625 12.804688 C 8.226562 12.507812 8.835938 11.601562 8.835938 10.535156 C 8.835938 10.464844 8.835938 10.394531 8.820312 10.328125 C 8.820312 10.292969 8.835938 10.257812 8.835938 10.222656 C 8.835938 9.835938 8.574219 5.003906 8.261719 5.003906 C 8.015625 5.003906 7.808594 7.953125 7.71875 9.4375 L 7.371094 9.4375 C 7.285156 7.972656 7.074219 5.003906 6.832031 5.003906 L 6.832031 25.015625 C 7.929688 24.984375 8.3125 23.882812 8.3125 22.539062 Z M 8.3125 22.539062 " fill-opacity="1" fill-rule="nonzero"/></g><g clip-path="url(#11b16adab8)"><path stroke-linecap="round" transform="matrix(0.17448, 0, 0, 0.17448, 3.218564, 3.329594)" fill="none" stroke-linejoin="round" d="M 32.194938 41.207799 C 32.194938 40.804816 32.194938 40.401833 32.105386 39.99885 C 32.105386 39.797359 32.194938 39.595867 32.194938 39.394375 C 32.194938 37.200356 30.694946 9.506461 28.903909 9.506461 C 27.493469 9.506461 26.306907 26.409364 25.791984 34.894397 L 23.799457 34.894397 C 23.306922 26.498916 22.097972 9.506461 20.709919 9.506461 C 19.299479 9.506461 18.090529 26.409364 17.597994 34.894397 L 15.605467 34.894397 C 15.202483 26.409364 13.993534 9.394521 12.605481 9.394521 C 10.792057 9.394521 9.292064 37.110804 9.292064 39.304824 C 9.292064 39.506315 9.292064 39.707807 9.404004 39.909298 C 9.404004 40.289893 9.292064 40.692877 9.292064 41.09586 C 9.292064 47.297322 12.695033 52.491327 17.508442 54.103259 C 12.806973 85.110571 12.29205 103.603019 12.29205 109.894033 C 12.29205 117.707428 14.508457 123.998442 20.799471 123.998442 C 27.090485 123.998442 29.306893 117.707428 29.306893 109.894033 C 29.306893 103.491079 28.79197 85.110571 24.0905 54.103259 C 28.702418 52.491327 32.194938 47.297322 32.194938 41.207799 Z M 32.194938 41.207799 " stroke="#33363a" stroke-width="3" stroke-opacity="1" stroke-miterlimit="10"/></g><g clip-path="url(#50fbb4e7d1)"><path fill="#ffffff" d="M 24.382812 13.710938 L 24.382812 4.410156 C 23.023438 4.410156 21.90625 7.027344 21.90625 13.78125 L 22.953125 13.78125 C 22.273438 18.597656 22.183594 21.492188 22.183594 22.523438 C 22.183594 23.882812 22.570312 24.984375 23.667969 24.984375 C 24.765625 24.984375 25.152344 23.882812 25.152344 22.523438 C 25.152344 21.492188 25.082031 18.5625 24.382812 13.710938 Z M 24.382812 13.710938 " fill-opacity="1" fill-rule="nonzero"/></g><g clip-path="url(#cbb438ff76)"><path fill="#ffffff" d="M 23.527344 4.8125 C 22.585938 5.753906 21.90625 8.511719 21.90625 13.796875 L 22.953125 13.796875 C 22.273438 18.613281 22.183594 21.511719 22.183594 22.539062 C 22.183594 23.832031 22.535156 24.894531 23.527344 24.984375 Z M 23.527344 4.8125 " fill-opacity="1" fill-rule="nonzero"/></g><g clip-path="url(#3a6ebab809)"><path stroke-linecap="round" transform="matrix(0.17448, 0, 0, 0.17448, 3.218564, 3.329594)" fill="none" stroke-linejoin="round" d="M 121.298983 59.498755 L 121.298983 6.193044 C 113.507976 6.193044 107.105022 21.192971 107.105022 59.901738 L 113.104993 59.901738 C 109.20949 87.506082 108.694567 104.095554 108.694567 110.005973 C 108.694567 117.79698 110.910974 124.110382 117.201988 124.110382 C 123.493002 124.110382 125.709409 117.79698 125.709409 110.005973 C 125.709409 104.095554 125.306426 87.30459 121.298983 59.498755 Z M 121.298983 59.498755 " stroke="#33363a" stroke-width="3" stroke-opacity="1" stroke-miterlimit="10"/></g><path stroke-linecap="round" transform="matrix(0.17448, 0, 0, 0.17448, 3.218564, 3.329594)" fill="none" stroke-linejoin="round" d="M 115.791547 59.99129 L 112.500518 59.99129 " stroke="#33363a" stroke-width="3" stroke-opacity="1" stroke-miterlimit="10"/><g clip-path="url(#fa74fbf47c)"><path fill="#ffffff" d="M 24.207031 16.78125 C 24.207031 21.753906 20.179688 25.785156 15.207031 25.785156 C 10.234375 25.785156 6.203125 21.753906 6.203125 16.78125 C 6.203125 11.808594 10.234375 7.777344 15.207031 7.777344 C 20.179688 7.777344 24.207031 11.808594 24.207031 16.78125 Z M 24.207031 16.78125 " fill-opacity="1" fill-rule="nonzero"/></g><g clip-path="url(#e38201d62d)"><path fill="#ffffff" d="M 15.207031 7.777344 C 20.179688 7.777344 24.207031 11.808594 24.207031 16.78125 C 24.207031 21.753906 20.179688 25.785156 15.207031 25.785156 " fill-opacity="1" fill-rule="nonzero"/></g><g clip-path="url(#c5304578fe)"><path stroke-linecap="round" transform="matrix(0.17448, 0, 0, 0.17448, 3.218564, 3.329594)" fill="none" stroke-linejoin="round" d="M 120.291525 77.095685 C 120.291525 105.595546 97.209548 128.699912 68.709686 128.699912 C 40.209825 128.699912 17.105459 105.595546 17.105459 77.095685 C 17.105459 48.595823 40.209825 25.491458 68.709686 25.491458 C 97.209548 25.491458 120.291525 48.595823 120.291525 77.095685 Z M 120.291525 77.095685 " stroke="#33363a" stroke-width="3" stroke-opacity="1" stroke-miterlimit="10"/></g><path fill="#ffffff" d="M 20.769531 16.78125 C 20.769531 17.148438 20.734375 17.507812 20.664062 17.867188 C 20.59375 18.226562 20.488281 18.574219 20.347656 18.910156 C 20.207031 19.25 20.035156 19.570312 19.832031 19.875 C 19.628906 20.179688 19.398438 20.460938 19.140625 20.71875 C 18.882812 20.976562 18.601562 21.207031 18.296875 21.410156 C 17.992188 21.613281 17.671875 21.785156 17.335938 21.925781 C 16.996094 22.0625 16.648438 22.167969 16.292969 22.242188 C 15.933594 22.3125 15.570312 22.347656 15.207031 22.347656 C 14.839844 22.347656 14.476562 22.3125 14.121094 22.242188 C 13.761719 22.167969 13.414062 22.0625 13.074219 21.925781 C 12.738281 21.785156 12.417969 21.613281 12.113281 21.410156 C 11.808594 21.207031 11.527344 20.976562 11.269531 20.71875 C 11.011719 20.460938 10.78125 20.179688 10.578125 19.875 C 10.375 19.570312 10.203125 19.25 10.0625 18.910156 C 9.921875 18.574219 9.816406 18.226562 9.746094 17.867188 C 9.675781 17.507812 9.640625 17.148438 9.640625 16.78125 C 9.640625 16.417969 9.675781 16.054688 9.746094 15.695312 C 9.816406 15.335938 9.921875 14.988281 10.0625 14.652344 C 10.203125 14.3125 10.375 13.992188 10.578125 13.691406 C 10.78125 13.386719 11.011719 13.105469 11.269531 12.847656 C 11.527344 12.585938 11.808594 12.355469 12.113281 12.152344 C 12.417969 11.949219 12.738281 11.78125 13.074219 11.640625 C 13.414062 11.5 13.761719 11.394531 14.121094 11.324219 C 14.476562 11.25 14.839844 11.214844 15.207031 11.214844 C 15.570312 11.214844 15.933594 11.25 16.292969 11.324219 C 16.648438 11.394531 16.996094 11.5 17.335938 11.640625 C 17.671875 11.78125 17.992188 11.949219 18.296875 12.152344 C 18.601562 12.355469 18.882812 12.585938 19.140625 12.847656 C 19.398438 13.105469 19.628906 13.386719 19.832031 13.691406 C 20.035156 13.992188 20.207031 14.3125 20.347656 14.652344 C 20.488281 14.988281 20.59375 15.335938 20.664062 15.695312 C 20.734375 16.054688 20.769531 16.417969 20.769531 16.78125 Z M 20.769531 16.78125 " fill-opacity="1" fill-rule="nonzero"/><path fill="#ffffff" d="M 9.621094 16.78125 C 9.621094 13.710938 12.117188 11.214844 15.1875 11.214844 C 18.257812 11.214844 20.753906 13.710938 20.753906 16.78125 " fill-opacity="1" fill-rule="nonzero"/><path stroke-linecap="round" transform="matrix(0.17448, 0, 0, 0.17448, 3.218564, 3.329594)" fill="none" stroke-linejoin="round" d="M 100.590128 77.095685 C 100.590128 79.200152 100.388637 81.259844 99.985654 83.319535 C 99.582671 85.379227 98.978196 87.371754 98.17223 89.297118 C 97.366264 91.24487 96.381194 93.080682 95.21702 94.826942 C 94.052847 96.573202 92.731958 98.185135 91.254353 99.662739 C 89.776748 101.140344 88.164816 102.461233 86.418556 103.625407 C 84.672295 104.78958 82.836483 105.77465 80.91112 106.580616 C 78.963368 107.364195 76.97084 107.968669 74.933537 108.39404 C 72.873845 108.797023 70.791766 108.998515 68.709686 108.998515 C 66.605219 108.998515 64.523139 108.797023 62.485836 108.39404 C 60.426144 107.968669 58.433617 107.364195 56.485865 106.580616 C 54.560501 105.77465 52.724689 104.78958 50.978429 103.625407 C 49.232169 102.461233 47.620236 101.140344 46.142632 99.662739 C 44.665027 98.185135 43.344138 96.573202 42.179964 94.826942 C 41.015791 93.080682 40.030721 91.24487 39.224755 89.297118 C 38.418789 87.371754 37.814314 85.379227 37.411331 83.319535 C 37.008348 81.259844 36.806856 79.200152 36.806856 77.095685 C 36.806856 75.013605 37.008348 72.931526 37.411331 70.871834 C 37.814314 68.812143 38.418789 66.819615 39.224755 64.894252 C 40.030721 62.9465 41.015791 61.110688 42.179964 59.386816 C 43.344138 57.640555 44.665027 56.028623 46.142632 54.551018 C 47.620236 53.051025 49.232169 51.730136 50.978429 50.565963 C 52.724689 49.401789 54.560501 48.439108 56.485865 47.633141 C 58.433617 46.827175 60.426144 46.2227 62.485836 45.819717 C 64.523139 45.394346 66.605219 45.192855 68.709686 45.192855 C 70.791766 45.192855 72.873845 45.394346 74.933537 45.819717 C 76.97084 46.2227 78.963368 46.827175 80.91112 47.633141 C 82.836483 48.439108 84.672295 49.401789 86.418556 50.565963 C 88.164816 51.730136 89.776748 53.051025 91.254353 54.551018 C 92.731958 56.028623 94.052847 57.640555 95.21702 59.386816 C 96.381194 61.110688 97.366264 62.9465 98.17223 64.894252 C 98.978196 66.819615 99.582671 68.812143 99.985654 70.871834 C 100.388637 72.931526 100.590128 75.013605 100.590128 77.095685 Z M 100.590128 77.095685 " stroke="#33363a" stroke-width="3" stroke-opacity="1" stroke-miterlimit="10"/><path fill="#ffffff" d="M 16.96875 14.199219 C 16.164062 14.199219 15.46875 14.652344 15.222656 15.316406 C 15.222656 15.332031 15.222656 15.332031 15.207031 15.351562 C 15.207031 15.351562 15.1875 15.332031 15.1875 15.316406 C 14.945312 14.652344 14.226562 14.199219 13.425781 14.199219 C 12.414062 14.199219 11.59375 14.933594 11.59375 15.824219 C 11.59375 16.152344 11.699219 16.46875 11.90625 16.730469 C 12.117188 16.992188 11.925781 16.746094 11.925781 16.746094 L 15.207031 20.621094 L 18.484375 16.746094 C 18.484375 16.746094 18.503906 16.730469 18.503906 16.730469 C 18.710938 16.46875 18.816406 16.152344 18.816406 15.824219 C 18.800781 14.933594 17.980469 14.199219 16.96875 14.199219 Z M 16.96875 14.199219 " fill-opacity="1" fill-rule="nonzero"/><path fill="#ffffff" d="M 15.1875 15.316406 C 14.945312 14.652344 14.226562 14.199219 13.425781 14.199219 C 12.414062 14.199219 11.59375 14.933594 11.59375 15.824219 C 11.59375 16.152344 11.699219 16.46875 11.90625 16.730469 C 12.117188 16.992188 11.925781 16.746094 11.925781 16.746094 L 15.207031 20.621094 L 15.207031 15.351562 C 15.1875 15.332031 15.1875 15.332031 15.1875 15.316406 Z M 15.1875 15.316406 " fill-opacity="1" fill-rule="nonzero"/><path stroke-linecap="round" transform="matrix(0.17448, 0, 0, 0.17448, 3.218564, 3.329594)" fill="none" stroke-linejoin="round" d="M 78.806652 62.297249 C 74.194734 62.297249 70.209679 64.894252 68.799238 68.700203 C 68.799238 68.789755 68.799238 68.789755 68.709686 68.901695 C 68.709686 68.901695 68.597747 68.789755 68.597747 68.700203 C 67.209694 64.894252 63.090311 62.297249 58.500781 62.297249 C 52.702301 62.297249 48.000832 66.506184 48.000832 71.610637 C 48.000832 73.491225 48.605306 75.304649 49.791868 76.804641 C 51.000817 78.304634 49.903807 76.894193 49.903807 76.894193 L 68.709686 99.103041 L 87.493177 76.894193 C 87.493177 76.894193 87.605117 76.804641 87.605117 76.804641 C 88.791678 75.304649 89.396153 73.491225 89.396153 71.610637 C 89.306601 66.506184 84.605132 62.297249 78.806652 62.297249 Z M 78.806652 62.297249 " stroke="#33363a" stroke-width="3" stroke-opacity="1" stroke-miterlimit="10"/><g clip-path="url(#b6d81ed287)"><path fill="#ffffff" d="M 8.835938 10.519531 C 8.835938 10.449219 8.835938 10.378906 8.820312 10.308594 C 8.820312 10.273438 8.835938 10.238281 8.835938 10.203125 C 8.835938 9.820312 8.574219 4.988281 8.261719 4.988281 C 8.015625 4.988281 7.808594 7.9375 7.71875 9.417969 L 7.371094 9.417969 C 7.285156 7.953125 7.074219 4.988281 6.832031 4.988281 C 6.585938 4.988281 6.375 7.9375 6.289062 9.417969 L 5.941406 9.417969 C 5.871094 7.9375 5.660156 4.96875 5.417969 4.96875 C 5.101562 4.96875 4.839844 9.804688 4.839844 10.1875 C 4.839844 10.222656 4.839844 10.257812 4.859375 10.292969 C 4.859375 10.359375 4.839844 10.429688 4.839844 10.5 C 4.839844 11.582031 5.433594 12.488281 6.273438 12.769531 C 5.453125 18.179688 5.363281 21.40625 5.363281 22.503906 C 5.363281 23.867188 5.75 24.964844 6.847656 24.964844 C 7.945312 24.964844 8.332031 23.867188 8.332031 22.503906 C 8.332031 21.386719 8.242188 18.179688 7.421875 12.769531 C 8.226562 12.488281 8.835938 11.582031 8.835938 10.519531 Z M 8.835938 10.519531 " fill-opacity="1" fill-rule="nonzero"/></g><g clip-path="url(#0a9795b40c)"><path fill="#ffffff" d="M 8.3125 22.539062 C 8.3125 21.421875 8.226562 18.210938 7.40625 12.804688 C 8.226562 12.507812 8.835938 11.601562 8.835938 10.535156 C 8.835938 10.464844 8.835938 10.394531 8.820312 10.328125 C 8.820312 10.292969 8.835938 10.257812 8.835938 10.222656 C 8.835938 9.835938 8.574219 5.003906 8.261719 5.003906 C 8.015625 5.003906 7.808594 7.953125 7.71875 9.4375 L 7.371094 9.4375 C 7.285156 7.972656 7.074219 5.003906 6.832031 5.003906 L 6.832031 25.015625 C 7.929688 24.984375 8.3125 23.882812 8.3125 22.539062 Z M 8.3125 22.539062 " fill-opacity="1" fill-rule="nonzero"/></g><g clip-path="url(#3df26e2256)"><path stroke-linecap="round" transform="matrix(0.17448, 0, 0, 0.17448, 3.218564, 3.329594)" fill="none" stroke-linejoin="round" d="M 32.194938 41.207799 C 32.194938 40.804816 32.194938 40.401833 32.105386 39.99885 C 32.105386 39.797359 32.194938 39.595867 32.194938 39.394375 C 32.194938 37.200356 30.694946 9.506461 28.903909 9.506461 C 27.493469 9.506461 26.306907 26.409364 25.791984 34.894397 L 23.799457 34.894397 C 23.306922 26.498916 22.097972 9.506461 20.709919 9.506461 C 19.299479 9.506461 18.090529 26.409364 17.597994 34.894397 L 15.605467 34.894397 C 15.202483 26.409364 13.993534 9.394521 12.605481 9.394521 C 10.792057 9.394521 9.292064 37.110804 9.292064 39.304824 C 9.292064 39.506315 9.292064 39.707807 9.404004 39.909298 C 9.404004 40.289893 9.292064 40.692877 9.292064 41.09586 C 9.292064 47.297322 12.695033 52.491327 17.508442 54.103259 C 12.806973 85.110571 12.29205 103.603019 12.29205 109.894033 C 12.29205 117.707428 14.508457 123.998442 20.799471 123.998442 C 27.090485 123.998442 29.306893 117.707428 29.306893 109.894033 C 29.306893 103.491079 28.79197 85.110571 24.0905 54.103259 C 28.702418 52.491327 32.194938 47.297322 32.194938 41.207799 Z M 32.194938 41.207799 " stroke="#33363a" stroke-width="3" stroke-opacity="1" stroke-miterlimit="10"/></g><g clip-path="url(#f58582f740)"><path fill="#ffffff" d="M 24.382812 13.710938 L 24.382812 4.410156 C 23.023438 4.410156 21.90625 7.027344 21.90625 13.78125 L 22.953125 13.78125 C 22.273438 18.597656 22.183594 21.492188 22.183594 22.523438 C 22.183594 23.882812 22.570312 24.984375 23.667969 24.984375 C 24.765625 24.984375 25.152344 23.882812 25.152344 22.523438 C 25.152344 21.492188 25.082031 18.5625 24.382812 13.710938 Z M 24.382812 13.710938 " fill-opacity="1" fill-rule="nonzero"/></g><g clip-path="url(#3795262814)"><path fill="#ffffff" d="M 23.527344 4.8125 C 22.585938 5.753906 21.90625 8.511719 21.90625 13.796875 L 22.953125 13.796875 C 22.273438 18.613281 22.183594 21.511719 22.183594 22.539062 C 22.183594 23.832031 22.535156 24.894531 23.527344 24.984375 Z M 23.527344 4.8125 " fill-opacity="1" fill-rule="nonzero"/></g><g clip-path="url(#879ffdd391)"><path stroke-linecap="round" transform="matrix(0.17448, 0, 0, 0.17448, 3.218564, 3.329594)" fill="none" stroke-linejoin="round" d="M 121.298983 59.498755 L 121.298983 6.193044 C 113.507976 6.193044 107.105022 21.192971 107.105022 59.901738 L 113.104993 59.901738 C 109.20949 87.506082 108.694567 104.095554 108.694567 110.005973 C 108.694567 117.79698 110.910974 124.110382 117.201988 124.110382 C 123.493002 124.110382 125.709409 117.79698 125.709409 110.005973 C 125.709409 104.095554 125.306426 87.30459 121.298983 59.498755 Z M 121.298983 59.498755 " stroke="#33363a" stroke-width="3" stroke-opacity="1" stroke-miterlimit="10"/></g><path stroke-linecap="round" transform="matrix(0.17448, 0, 0, 0.17448, 3.218564, 3.329594)" fill="none" stroke-linejoin="round" d="M 115.791547 59.99129 L 112.500518 59.99129 " stroke="#33363a" stroke-width="3" stroke-opacity="1" stroke-miterlimit="10"/></svg>