<svg xmlns="http://www.w3.org/2000/svg" xmlns:xlink="http://www.w3.org/1999/xlink" width="40" zoomAndPan="magnify" viewBox="0 0 30 30.000001" height="40" preserveAspectRatio="xMidYMid meet" version="1.0"><defs><clipPath id="5f984325c3"><path d="M 7 5 L 25.5 5 L 25.5 25.242188 L 7 25.242188 Z M 7 5 " clip-rule="nonzero"/></clipPath><clipPath id="77a496c088"><path d="M 13 3.46875 L 16 3.46875 L 16 8 L 13 8 Z M 13 3.46875 " clip-rule="nonzero"/></clipPath><clipPath id="cfa5ff1257"><path d="M 15 3.46875 L 18 3.46875 L 18 8 L 15 8 Z M 15 3.46875 " clip-rule="nonzero"/></clipPath><clipPath id="397eccabe8"><path d="M 12 3.46875 L 19 3.46875 L 19 5 L 12 5 Z M 12 3.46875 " clip-rule="nonzero"/></clipPath><clipPath id="70f16749da"><path d="M 4.449219 14 L 13 14 L 13 16 L 4.449219 16 Z M 4.449219 14 " clip-rule="nonzero"/></clipPath><clipPath id="7d0cf46854"><path d="M 7 5 L 25.5 5 L 25.5 25.242188 L 7 25.242188 Z M 7 5 " clip-rule="nonzero"/></clipPath><clipPath id="12b5ed1d55"><path d="M 13 3.46875 L 16 3.46875 L 16 8 L 13 8 Z M 13 3.46875 " clip-rule="nonzero"/></clipPath><clipPath id="69ed859466"><path d="M 15 3.46875 L 18 3.46875 L 18 8 L 15 8 Z M 15 3.46875 " clip-rule="nonzero"/></clipPath><clipPath id="8e9130e39e"><path d="M 12 3.46875 L 19 3.46875 L 19 5 L 12 5 Z M 12 3.46875 " clip-rule="nonzero"/></clipPath><clipPath id="bea7d519f0"><path d="M 4.449219 14 L 13 14 L 13 16 L 4.449219 16 Z M 4.449219 14 " clip-rule="nonzero"/></clipPath></defs><g clip-path="url(#5f984325c3)"><path fill="#ffffff" d="M 10.132812 8.898438 C 11.589844 7.71875 13.441406 7.015625 15.460938 7.015625 C 20.136719 7.015625 23.9375 10.8125 23.9375 15.492188 C 23.9375 20.167969 20.136719 23.96875 15.460938 23.96875 C 12.953125 23.96875 10.695312 22.875 9.144531 21.144531 C 8.859375 20.824219 8.371094 20.796875 8.054688 21.082031 C 7.738281 21.367188 7.710938 21.855469 7.996094 22.171875 C 9.828125 24.21875 12.496094 25.507812 15.460938 25.507812 C 20.988281 25.507812 25.476562 21.019531 25.476562 15.492188 C 25.476562 9.960938 20.988281 5.472656 15.460938 5.472656 C 13.074219 5.472656 10.886719 6.308594 9.164062 7.699219 C 8.835938 7.964844 8.78125 8.453125 9.050781 8.785156 C 9.316406 9.113281 9.804688 9.164062 10.132812 8.898438 Z M 10.132812 8.898438 " fill-opacity="1" fill-rule="evenodd"/></g><g clip-path="url(#77a496c088)"><path fill="#ffffff" d="M 15.203125 6.242188 L 15.203125 4.1875 C 15.203125 3.761719 14.855469 3.417969 14.433594 3.417969 C 14.007812 3.417969 13.660156 3.761719 13.660156 4.1875 L 13.660156 6.242188 C 13.660156 6.667969 14.007812 7.015625 14.433594 7.015625 C 14.855469 7.015625 15.203125 6.667969 15.203125 6.242188 Z M 15.203125 6.242188 " fill-opacity="1" fill-rule="evenodd"/></g><g clip-path="url(#cfa5ff1257)"><path fill="#ffffff" d="M 17.257812 6.242188 L 17.257812 4.1875 C 17.257812 3.761719 16.914062 3.417969 16.488281 3.417969 C 16.0625 3.417969 15.714844 3.761719 15.714844 4.1875 L 15.714844 6.242188 C 15.714844 6.667969 16.0625 7.015625 16.488281 7.015625 C 16.914062 7.015625 17.257812 6.667969 17.257812 6.242188 Z M 17.257812 6.242188 " fill-opacity="1" fill-rule="evenodd"/></g><path fill="#ffffff" d="M 22.167969 8.84375 L 23.625 7.390625 C 23.921875 7.089844 23.921875 6.601562 23.625 6.300781 C 23.320312 6 22.835938 6 22.53125 6.300781 L 21.078125 7.753906 C 20.777344 8.054688 20.777344 8.542969 21.078125 8.84375 C 21.378906 9.144531 21.871094 9.144531 22.167969 8.84375 Z M 22.167969 8.84375 " fill-opacity="1" fill-rule="evenodd"/><path fill="#ffffff" d="M 24.738281 7.242188 L 22.683594 5.183594 C 22.382812 4.882812 21.894531 4.882812 21.59375 5.183594 C 21.292969 5.484375 21.292969 5.972656 21.59375 6.273438 L 23.648438 8.328125 C 23.949219 8.628906 24.4375 8.628906 24.738281 8.328125 C 25.039062 8.03125 25.039062 7.539062 24.738281 7.242188 Z M 24.738281 7.242188 " fill-opacity="1" fill-rule="evenodd"/><g clip-path="url(#397eccabe8)"><path fill="#ffffff" d="M 13.40625 4.960938 L 17.515625 4.960938 C 17.941406 4.960938 18.285156 4.613281 18.285156 4.1875 C 18.285156 3.761719 17.941406 3.417969 17.515625 3.417969 L 13.40625 3.417969 C 12.980469 3.417969 12.632812 3.761719 12.632812 4.1875 C 12.632812 4.613281 12.980469 4.960938 13.40625 4.960938 Z M 13.40625 4.960938 " fill-opacity="1" fill-rule="evenodd"/></g><path fill="#ffffff" d="M 14.6875 9.839844 L 14.6875 14.976562 C 14.6875 15.183594 14.769531 15.378906 14.914062 15.523438 L 17.996094 18.605469 C 18.296875 18.90625 18.785156 18.90625 19.085938 18.605469 C 19.386719 18.304688 19.386719 17.816406 19.085938 17.515625 L 16.230469 14.65625 C 16.230469 14.65625 16.230469 9.839844 16.230469 9.839844 C 16.230469 9.414062 15.886719 9.070312 15.460938 9.070312 C 15.035156 9.070312 14.6875 9.414062 14.6875 9.839844 Z M 14.6875 9.839844 " fill-opacity="1" fill-rule="evenodd"/><g clip-path="url(#70f16749da)"><path fill="#ffffff" d="M 5.183594 15.75 L 11.347656 15.75 C 11.773438 15.75 12.121094 15.402344 12.121094 14.976562 C 12.121094 14.550781 11.773438 14.207031 11.347656 14.207031 L 5.183594 14.207031 C 4.757812 14.207031 4.414062 14.550781 4.414062 14.976562 C 4.414062 15.402344 4.757812 15.75 5.183594 15.75 Z M 5.183594 15.75 " fill-opacity="1" fill-rule="evenodd"/></g><path fill="#ffffff" d="M 8.265625 12.152344 L 11.347656 12.152344 C 11.773438 12.152344 12.121094 11.804688 12.121094 11.382812 C 12.121094 10.957031 11.773438 10.609375 11.347656 10.609375 L 8.265625 10.609375 C 7.839844 10.609375 7.496094 10.957031 7.496094 11.382812 C 7.496094 11.804688 7.839844 12.152344 8.265625 12.152344 Z M 8.265625 12.152344 " fill-opacity="1" fill-rule="evenodd"/><path fill="#ffffff" d="M 8.265625 19.34375 L 11.347656 19.34375 C 11.773438 19.34375 12.121094 19 12.121094 18.574219 C 12.121094 18.148438 11.773438 17.804688 11.347656 17.804688 L 8.265625 17.804688 C 7.839844 17.804688 7.496094 18.148438 7.496094 18.574219 C 7.496094 19 7.839844 19.34375 8.265625 19.34375 Z M 8.265625 19.34375 " fill-opacity="1" fill-rule="evenodd"/><g clip-path="url(#7d0cf46854)"><path fill="#ffffff" d="M 10.132812 8.898438 C 11.589844 7.71875 13.441406 7.015625 15.460938 7.015625 C 20.136719 7.015625 23.9375 10.8125 23.9375 15.492188 C 23.9375 20.167969 20.136719 23.96875 15.460938 23.96875 C 12.953125 23.96875 10.695312 22.875 9.144531 21.144531 C 8.859375 20.824219 8.371094 20.796875 8.054688 21.082031 C 7.738281 21.367188 7.710938 21.855469 7.996094 22.171875 C 9.828125 24.21875 12.496094 25.507812 15.460938 25.507812 C 20.988281 25.507812 25.476562 21.019531 25.476562 15.492188 C 25.476562 9.960938 20.988281 5.472656 15.460938 5.472656 C 13.074219 5.472656 10.886719 6.308594 9.164062 7.699219 C 8.835938 7.964844 8.78125 8.453125 9.050781 8.785156 C 9.316406 9.113281 9.804688 9.164062 10.132812 8.898438 Z M 10.132812 8.898438 " fill-opacity="1" fill-rule="evenodd"/></g><g clip-path="url(#12b5ed1d55)"><path fill="#ffffff" d="M 15.203125 6.242188 L 15.203125 4.1875 C 15.203125 3.761719 14.855469 3.417969 14.433594 3.417969 C 14.007812 3.417969 13.660156 3.761719 13.660156 4.1875 L 13.660156 6.242188 C 13.660156 6.667969 14.007812 7.015625 14.433594 7.015625 C 14.855469 7.015625 15.203125 6.667969 15.203125 6.242188 Z M 15.203125 6.242188 " fill-opacity="1" fill-rule="evenodd"/></g><g clip-path="url(#69ed859466)"><path fill="#ffffff" d="M 17.257812 6.242188 L 17.257812 4.1875 C 17.257812 3.761719 16.914062 3.417969 16.488281 3.417969 C 16.0625 3.417969 15.714844 3.761719 15.714844 4.1875 L 15.714844 6.242188 C 15.714844 6.667969 16.0625 7.015625 16.488281 7.015625 C 16.914062 7.015625 17.257812 6.667969 17.257812 6.242188 Z M 17.257812 6.242188 " fill-opacity="1" fill-rule="evenodd"/></g><path fill="#ffffff" d="M 22.167969 8.84375 L 23.625 7.390625 C 23.921875 7.089844 23.921875 6.601562 23.625 6.300781 C 23.320312 6 22.835938 6 22.53125 6.300781 L 21.078125 7.753906 C 20.777344 8.054688 20.777344 8.542969 21.078125 8.84375 C 21.378906 9.144531 21.871094 9.144531 22.167969 8.84375 Z M 22.167969 8.84375 " fill-opacity="1" fill-rule="evenodd"/><path fill="#ffffff" d="M 24.738281 7.242188 L 22.683594 5.183594 C 22.382812 4.882812 21.894531 4.882812 21.59375 5.183594 C 21.292969 5.484375 21.292969 5.972656 21.59375 6.273438 L 23.648438 8.328125 C 23.949219 8.628906 24.4375 8.628906 24.738281 8.328125 C 25.039062 8.03125 25.039062 7.539062 24.738281 7.242188 Z M 24.738281 7.242188 " fill-opacity="1" fill-rule="evenodd"/><g clip-path="url(#8e9130e39e)"><path fill="#ffffff" d="M 13.40625 4.960938 L 17.515625 4.960938 C 17.941406 4.960938 18.285156 4.613281 18.285156 4.1875 C 18.285156 3.761719 17.941406 3.417969 17.515625 3.417969 L 13.40625 3.417969 C 12.980469 3.417969 12.632812 3.761719 12.632812 4.1875 C 12.632812 4.613281 12.980469 4.960938 13.40625 4.960938 Z M 13.40625 4.960938 " fill-opacity="1" fill-rule="evenodd"/></g><path fill="#ffffff" d="M 14.6875 9.839844 L 14.6875 14.976562 C 14.6875 15.183594 14.769531 15.378906 14.914062 15.523438 L 17.996094 18.605469 C 18.296875 18.90625 18.785156 18.90625 19.085938 18.605469 C 19.386719 18.304688 19.386719 17.816406 19.085938 17.515625 L 16.230469 14.65625 C 16.230469 14.65625 16.230469 9.839844 16.230469 9.839844 C 16.230469 9.414062 15.886719 9.070312 15.460938 9.070312 C 15.035156 9.070312 14.6875 9.414062 14.6875 9.839844 Z M 14.6875 9.839844 " fill-opacity="1" fill-rule="evenodd"/><g clip-path="url(#bea7d519f0)"><path fill="#ffffff" d="M 5.183594 15.75 L 11.347656 15.75 C 11.773438 15.75 12.121094 15.402344 12.121094 14.976562 C 12.121094 14.550781 11.773438 14.207031 11.347656 14.207031 L 5.183594 14.207031 C 4.757812 14.207031 4.414062 14.550781 4.414062 14.976562 C 4.414062 15.402344 4.757812 15.75 5.183594 15.75 Z M 5.183594 15.75 " fill-opacity="1" fill-rule="evenodd"/></g><path fill="#ffffff" d="M 8.265625 12.152344 L 11.347656 12.152344 C 11.773438 12.152344 12.121094 11.804688 12.121094 11.382812 C 12.121094 10.957031 11.773438 10.609375 11.347656 10.609375 L 8.265625 10.609375 C 7.839844 10.609375 7.496094 10.957031 7.496094 11.382812 C 7.496094 11.804688 7.839844 12.152344 8.265625 12.152344 Z M 8.265625 12.152344 " fill-opacity="1" fill-rule="evenodd"/><path fill="#ffffff" d="M 8.265625 19.34375 L 11.347656 19.34375 C 11.773438 19.34375 12.121094 19 12.121094 18.574219 C 12.121094 18.148438 11.773438 17.804688 11.347656 17.804688 L 8.265625 17.804688 C 7.839844 17.804688 7.496094 18.148438 7.496094 18.574219 C 7.496094 19 7.839844 19.34375 8.265625 19.34375 Z M 8.265625 19.34375 " fill-opacity="1" fill-rule="evenodd"/></svg>