<svg xmlns="http://www.w3.org/2000/svg" xmlns:xlink="http://www.w3.org/1999/xlink" width="40" zoomAndPan="magnify" viewBox="0 0 30 30.000001" height="40" preserveAspectRatio="xMidYMid meet" version="1.0"><defs><clipPath id="ed03926062"><path d="M 14.128906 14 L 16.308594 14 L 16.308594 15 L 14.128906 15 Z M 14.128906 14 " clip-rule="nonzero"/></clipPath><clipPath id="f0f26d9e0d"><path d="M 16 14 L 16.308594 14 L 16.308594 15 L 16 15 Z M 16 14 " clip-rule="nonzero"/></clipPath><clipPath id="d7f0d15e87"><path d="M 14.128906 13.789062 L 15 13.789062 L 15 15 L 14.128906 15 Z M 14.128906 13.789062 " clip-rule="nonzero"/></clipPath><clipPath id="39cc88659b"><path d="M 14.128906 13.789062 L 16 13.789062 L 16 15 L 14.128906 15 Z M 14.128906 13.789062 " clip-rule="nonzero"/></clipPath><clipPath id="fea0ec0600"><path d="M 9 13 L 27.40625 13 L 27.40625 19 L 9 19 Z M 9 13 " clip-rule="nonzero"/></clipPath><clipPath id="8a5112c04d"><path d="M 2.730469 10 L 11 10 L 11 20.613281 L 2.730469 20.613281 Z M 2.730469 10 " clip-rule="nonzero"/></clipPath></defs><g clip-path="url(#ed03926062)"><path fill="#cf5858" d="M 14.949219 14.203125 C 14.933594 14.390625 14.878906 14.5625 14.777344 14.722656 L 16.488281 14.722656 L 16.488281 14.203125 Z M 14.949219 14.203125 " fill-opacity="1" fill-rule="nonzero"/></g><path fill="#393a39" d="M 15.199219 14.476562 C 15.199219 14.496094 15.191406 14.511719 15.175781 14.519531 C 15.164062 14.53125 15.148438 14.539062 15.125 14.539062 C 15.105469 14.539062 15.085938 14.53125 15.074219 14.515625 C 15.058594 14.5 15.054688 14.476562 15.054688 14.453125 L 15.054688 14.441406 C 15.054688 14.421875 15.054688 14.40625 15.0625 14.394531 C 15.066406 14.382812 15.078125 14.371094 15.089844 14.363281 C 15.097656 14.359375 15.113281 14.355469 15.128906 14.355469 C 15.148438 14.355469 15.164062 14.359375 15.175781 14.371094 C 15.191406 14.382812 15.195312 14.398438 15.199219 14.417969 L 15.164062 14.417969 C 15.160156 14.40625 15.15625 14.398438 15.152344 14.390625 C 15.148438 14.386719 15.136719 14.382812 15.128906 14.382812 C 15.113281 14.382812 15.105469 14.390625 15.101562 14.398438 C 15.09375 14.40625 15.089844 14.421875 15.089844 14.4375 L 15.089844 14.453125 C 15.089844 14.472656 15.09375 14.484375 15.097656 14.496094 C 15.105469 14.503906 15.113281 14.507812 15.125 14.507812 C 15.136719 14.507812 15.148438 14.503906 15.152344 14.5 C 15.15625 14.496094 15.160156 14.488281 15.160156 14.476562 Z M 15.199219 14.476562 " fill-opacity="1" fill-rule="nonzero"/><path fill="#393a39" d="M 15.34375 14.457031 L 15.273438 14.457031 L 15.273438 14.503906 L 15.355469 14.503906 L 15.355469 14.535156 L 15.234375 14.535156 L 15.234375 14.355469 L 15.355469 14.355469 L 15.355469 14.386719 L 15.273438 14.386719 L 15.273438 14.429688 L 15.34375 14.429688 Z M 15.34375 14.457031 " fill-opacity="1" fill-rule="nonzero"/><path fill="#393a39" d="M 15.457031 14.46875 L 15.425781 14.46875 L 15.425781 14.535156 L 15.390625 14.535156 L 15.390625 14.355469 L 15.457031 14.355469 C 15.476562 14.355469 15.492188 14.363281 15.503906 14.371094 C 15.515625 14.378906 15.523438 14.394531 15.523438 14.410156 C 15.523438 14.421875 15.519531 14.433594 15.515625 14.441406 C 15.507812 14.449219 15.5 14.457031 15.488281 14.460938 L 15.527344 14.535156 L 15.488281 14.535156 Z M 15.425781 14.441406 L 15.457031 14.441406 C 15.464844 14.441406 15.472656 14.4375 15.476562 14.433594 C 15.484375 14.429688 15.484375 14.421875 15.484375 14.414062 C 15.484375 14.40625 15.484375 14.398438 15.476562 14.394531 C 15.472656 14.390625 15.464844 14.386719 15.457031 14.386719 L 15.425781 14.386719 Z M 15.425781 14.441406 " fill-opacity="1" fill-rule="nonzero"/><path fill="#393a39" d="M 15.691406 14.386719 L 15.636719 14.386719 L 15.636719 14.535156 L 15.597656 14.535156 L 15.597656 14.386719 L 15.546875 14.386719 L 15.546875 14.355469 L 15.691406 14.355469 Z M 15.691406 14.386719 " fill-opacity="1" fill-rule="nonzero"/><path fill="#393a39" d="M 15.726562 14.355469 L 15.761719 14.355469 L 15.761719 14.535156 L 15.726562 14.535156 Z M 15.726562 14.355469 " fill-opacity="1" fill-rule="nonzero"/><path fill="#393a39" d="M 15.917969 14.460938 L 15.847656 14.460938 L 15.847656 14.535156 L 15.808594 14.535156 L 15.808594 14.355469 L 15.925781 14.355469 L 15.925781 14.386719 L 15.847656 14.386719 L 15.847656 14.433594 L 15.917969 14.433594 Z M 15.917969 14.460938 " fill-opacity="1" fill-rule="nonzero"/><path fill="#393a39" d="M 15.964844 14.355469 L 16 14.355469 L 16 14.535156 L 15.964844 14.535156 Z M 15.964844 14.355469 " fill-opacity="1" fill-rule="nonzero"/><g clip-path="url(#f0f26d9e0d)"><path fill="#393a39" d="M 16.152344 14.457031 L 16.082031 14.457031 L 16.082031 14.503906 L 16.167969 14.503906 L 16.167969 14.535156 L 16.046875 14.535156 L 16.046875 14.355469 L 16.167969 14.355469 L 16.167969 14.386719 L 16.082031 14.386719 L 16.082031 14.429688 L 16.152344 14.429688 Z M 16.152344 14.457031 " fill-opacity="1" fill-rule="nonzero"/><path fill="#393a39" d="M 16.199219 14.535156 L 16.199219 14.355469 L 16.253906 14.355469 C 16.269531 14.355469 16.285156 14.359375 16.296875 14.367188 C 16.308594 14.375 16.320312 14.382812 16.328125 14.398438 C 16.332031 14.410156 16.335938 14.425781 16.335938 14.441406 L 16.335938 14.449219 C 16.335938 14.46875 16.332031 14.480469 16.328125 14.496094 C 16.320312 14.507812 16.3125 14.515625 16.296875 14.523438 C 16.285156 14.53125 16.269531 14.535156 16.257812 14.535156 Z M 16.238281 14.386719 L 16.238281 14.503906 L 16.253906 14.503906 C 16.269531 14.503906 16.28125 14.5 16.289062 14.492188 C 16.296875 14.480469 16.300781 14.46875 16.300781 14.453125 L 16.300781 14.441406 C 16.300781 14.421875 16.296875 14.410156 16.289062 14.402344 C 16.28125 14.390625 16.269531 14.386719 16.253906 14.386719 Z M 16.238281 14.386719 " fill-opacity="1" fill-rule="nonzero"/></g><g clip-path="url(#d7f0d15e87)"><path fill="#cf5858" d="M 14.476562 14.902344 L 14.511719 14.933594 L 14.546875 14.902344 C 14.777344 14.695312 14.890625 14.441406 14.890625 14.132812 L 14.511719 13.910156 L 14.128906 14.132812 C 14.128906 14.441406 14.246094 14.695312 14.476562 14.902344 Z M 14.476562 14.902344 " fill-opacity="1" fill-rule="nonzero"/></g><g clip-path="url(#39cc88659b)"><path fill="#393a39" d="M 14.246094 14.296875 L 14.277344 14.3125 C 14.335938 14.347656 14.445312 14.441406 14.480469 14.496094 L 14.507812 14.53125 L 14.519531 14.507812 C 14.566406 14.40625 15.066406 14 15.066406 14 L 14.933594 13.792969 C 14.933594 13.792969 14.53125 14.28125 14.5 14.371094 L 14.496094 14.386719 L 14.453125 14.335938 C 14.425781 14.304688 14.320312 14.246094 14.285156 14.269531 Z M 14.246094 14.296875 " fill-opacity="1" fill-rule="nonzero"/></g><g clip-path="url(#fea0ec0600)"><path fill="#cf5858" d="M 11.230469 13.261719 C 11.105469 15.21875 10.511719 17.023438 9.445312 18.671875 L 27.242188 18.671875 L 27.242188 13.261719 Z M 11.230469 13.261719 " fill-opacity="1" fill-rule="nonzero"/></g><path fill="#393a39" d="M 13.839844 16.105469 C 13.828125 16.304688 13.753906 16.460938 13.621094 16.578125 C 13.488281 16.691406 13.3125 16.75 13.09375 16.75 C 12.855469 16.75 12.667969 16.667969 12.53125 16.507812 C 12.398438 16.347656 12.328125 16.128906 12.328125 15.851562 L 12.328125 15.738281 C 12.328125 15.558594 12.359375 15.402344 12.421875 15.265625 C 12.480469 15.132812 12.570312 15.027344 12.691406 14.953125 C 12.808594 14.878906 12.945312 14.84375 13.097656 14.84375 C 13.3125 14.84375 13.484375 14.898438 13.617188 15.015625 C 13.746094 15.128906 13.824219 15.289062 13.84375 15.5 L 13.460938 15.5 C 13.453125 15.378906 13.417969 15.292969 13.363281 15.238281 C 13.304688 15.183594 13.214844 15.15625 13.097656 15.15625 C 12.972656 15.15625 12.875 15.203125 12.8125 15.292969 C 12.75 15.386719 12.71875 15.527344 12.714844 15.71875 L 12.714844 15.859375 C 12.714844 16.058594 12.746094 16.207031 12.808594 16.296875 C 12.867188 16.390625 12.964844 16.4375 13.09375 16.4375 C 13.210938 16.4375 13.300781 16.410156 13.359375 16.355469 C 13.417969 16.300781 13.449219 16.21875 13.457031 16.105469 Z M 13.839844 16.105469 " fill-opacity="1" fill-rule="nonzero"/><path fill="#393a39" d="M 15.339844 15.917969 L 14.605469 15.917969 L 14.605469 16.417969 L 15.464844 16.417969 L 15.464844 16.722656 L 14.222656 16.722656 L 14.222656 14.867188 L 15.464844 14.867188 L 15.464844 15.179688 L 14.605469 15.179688 L 14.605469 15.621094 L 15.339844 15.621094 Z M 15.339844 15.917969 " fill-opacity="1" fill-rule="nonzero"/><path fill="#393a39" d="M 16.507812 16.042969 L 16.203125 16.042969 L 16.203125 16.722656 L 15.820312 16.722656 L 15.820312 14.867188 L 16.511719 14.867188 C 16.730469 14.867188 16.898438 14.917969 17.019531 15.015625 C 17.136719 15.113281 17.195312 15.25 17.195312 15.429688 C 17.195312 15.554688 17.167969 15.660156 17.113281 15.746094 C 17.058594 15.832031 16.976562 15.898438 16.867188 15.949219 L 17.265625 16.707031 L 17.265625 16.722656 L 16.855469 16.722656 Z M 16.203125 15.734375 L 16.511719 15.734375 C 16.609375 15.734375 16.683594 15.710938 16.734375 15.660156 C 16.789062 15.613281 16.8125 15.546875 16.8125 15.460938 C 16.8125 15.371094 16.789062 15.304688 16.738281 15.253906 C 16.691406 15.203125 16.613281 15.179688 16.511719 15.179688 L 16.203125 15.179688 Z M 16.203125 15.734375 " fill-opacity="1" fill-rule="nonzero"/><path fill="#393a39" d="M 18.949219 15.179688 L 18.382812 15.179688 L 18.382812 16.722656 L 18 16.722656 L 18 15.179688 L 17.4375 15.179688 L 17.4375 14.867188 L 18.949219 14.867188 Z M 18.949219 15.179688 " fill-opacity="1" fill-rule="nonzero"/><path fill="#393a39" d="M 19.324219 14.867188 L 19.707031 14.867188 L 19.707031 16.722656 L 19.324219 16.722656 Z M 19.324219 14.867188 " fill-opacity="1" fill-rule="nonzero"/><path fill="#393a39" d="M 21.308594 15.964844 L 20.574219 15.964844 L 20.574219 16.722656 L 20.191406 16.722656 L 20.191406 14.867188 L 21.398438 14.867188 L 21.398438 15.179688 L 20.574219 15.179688 L 20.574219 15.65625 L 21.308594 15.65625 Z M 21.308594 15.964844 " fill-opacity="1" fill-rule="nonzero"/><path fill="#393a39" d="M 21.773438 14.867188 L 22.15625 14.867188 L 22.15625 16.722656 L 21.773438 16.722656 Z M 21.773438 14.867188 " fill-opacity="1" fill-rule="nonzero"/><path fill="#393a39" d="M 23.757812 15.917969 L 23.023438 15.917969 L 23.023438 16.417969 L 23.886719 16.417969 L 23.886719 16.722656 L 22.640625 16.722656 L 22.640625 14.867188 L 23.882812 14.867188 L 23.882812 15.179688 L 23.023438 15.179688 L 23.023438 15.621094 L 23.757812 15.621094 Z M 23.757812 15.917969 " fill-opacity="1" fill-rule="nonzero"/><path fill="#393a39" d="M 24.242188 16.722656 L 24.242188 14.867188 L 24.8125 14.867188 C 24.96875 14.867188 25.113281 14.902344 25.25 14.980469 C 25.382812 15.054688 25.480469 15.15625 25.550781 15.292969 C 25.625 15.429688 25.660156 15.582031 25.660156 15.753906 L 25.660156 15.839844 C 25.660156 16.011719 25.625 16.164062 25.554688 16.300781 C 25.484375 16.433594 25.382812 16.539062 25.253906 16.613281 C 25.117188 16.6875 24.972656 16.726562 24.816406 16.722656 Z M 24.625 15.179688 L 24.625 16.417969 L 24.808594 16.417969 C 24.957031 16.417969 25.070312 16.367188 25.152344 16.269531 C 25.230469 16.171875 25.269531 16.03125 25.273438 15.851562 L 25.273438 15.753906 C 25.273438 15.5625 25.234375 15.421875 25.15625 15.324219 C 25.078125 15.226562 24.960938 15.179688 24.8125 15.179688 Z M 24.625 15.179688 " fill-opacity="1" fill-rule="nonzero"/><g clip-path="url(#8a5112c04d)"><path fill="#cf5858" d="M 6.328125 20.527344 L 6.703125 20.863281 L 7.082031 20.527344 C 8.21875 19.511719 9.097656 18.308594 9.722656 16.917969 C 10.34375 15.527344 10.65625 14.070312 10.65625 12.546875 L 10.65625 12.535156 L 6.703125 10.25 L 2.75 12.535156 L 2.75 12.546875 C 2.753906 14.070312 3.0625 15.527344 3.6875 16.917969 C 4.308594 18.308594 5.191406 19.511719 6.328125 20.527344 Z M 6.328125 20.527344 " fill-opacity="1" fill-rule="nonzero"/></g><path fill="#393a39" d="M 3.96875 14.25 L 4.257812 14.414062 C 4.867188 14.757812 6 15.75 6.398438 16.324219 L 6.652344 16.695312 L 6.785156 16.429688 C 7.292969 15.382812 12.460938 11.183594 12.460938 11.183594 L 11.082031 9 C 11.082031 9 6.925781 14.097656 6.59375 15.015625 L 6.535156 15.183594 L 6.097656 14.648438 C 5.824219 14.3125 4.730469 13.726562 4.375 13.972656 Z M 3.96875 14.25 " fill-opacity="1" fill-rule="nonzero"/></svg>